<svg xmlns="http://www.w3.org/2000/svg" xmlns:inkscape="http://www.inkscape.org/namespaces/inkscape" xmlns:sodipodi="http://sodipodi.sourceforge.net/DTD/sodipodi-0.dtd" xmlns:xlink="http://www.w3.org/1999/xlink" inkscape:version="1.2.2 (b0a8486541, 2022-12-01)" sodipodi:docname="derich_and_rosemary.svg" xml:space="preserve" width="210mm" height="297mm" viewBox="0 0 210 297"><sodipodi:namedview inkscape:current-layer="layer1" inkscape:cx="588.25" inkscape:cy="537.125" inkscape:deskcolor="#d1d1d1" inkscape:document-units="mm" inkscape:pagecheckerboard="0" inkscape:pageopacity="0" inkscape:showpageshadow="0" inkscape:window-height="1080" inkscape:window-maximized="1" inkscape:window-width="1920" inkscape:window-x="1920" inkscape:window-y="0" inkscape:zoom="4" bordercolor="#999999" borderopacity="1" pagecolor="#ffffff" showgrid="false"/><image sodipodi:insensitive="true" xlink:href="../krita_files/derich.png" width="338.667" height="338.667" x="-49.125" y="-41.469" preserveAspectRatio="none" style="opacity:.3"/><g inkscape:label="Line"><path inkscape:label="Neck" sodipodi:nodetypes="cccccc" d="m154.814 142.553-.12 9.722c2.05 2 4.959 2.404 9.742 2.402 3.303-.15 6.83.359 9.754-2.563l-.058-9.946z" style="opacity:1;fill:#ffeedb;fill-opacity:1;stroke:#000;stroke-width:.264583;stroke-dasharray:none;stroke-opacity:1"/><g inkscape:label="Head"><g inkscape:label="Ears"><path inkscape:label="Left" sodipodi:nodetypes="ccc" d="M143.705 129.848c.454 2.646 1.283 4.473 4.744 6.243-1.52-15.113-3.097-18.41-4.744-6.243z" style="fill:#ffeedb;stroke:#000;stroke-width:.268767;stroke-dasharray:none;stroke-opacity:1;fill-opacity:1"/><path inkscape:label="Right" sodipodi:nodetypes="ccc" d="M184.367 133.41c-1.15 1.6-2.743 2.735-4.576 3.133 1.813-8.792 3.668-18.717 4.576-3.132z" style="fill:#ffeedb;stroke:#000;stroke-width:.264583;stroke-dasharray:none;stroke-opacity:1;fill-opacity:1"/></g><path inkscape:label="Outline" sodipodi:nodetypes="ssssccccs" d="M172.64 145.813c-1.952 1.681-4.561 2.902-8.091 2.987-3.362.08-6.823-1.625-9.666-4.048-2.292-1.953-4.181-4.419-5.306-6.424-2.521-4.493-4.113-9.465-4.668-20.892.144-10.446 2.19-12.934 5.525-16.58 6.036-5.033 17.142-8.487 28.767 1.875 5.027 5.209 5.304 7.504 4.991 16.87-3.771 18.038-4.529 20.163-11.552 26.212z" style="display:inline;fill:#0080ff;fill-opacity:1;stroke:#000;stroke-width:.264583;stroke-dasharray:none;stroke-opacity:1"/><g inkscape:label="Twintail" sodipodi:insensitive="true"><path inkscape:label="Left" sodipodi:nodetypes="cccccsccccccc" d="M140.704 114.128c-5.839 13.769-7.344 31.526-6.592 48.516.97 7.386 1.06 8.513 2.437 15.675l3.155 12.238c-1.063-6.956-2.064-15.233-1.054-23.774 1.25 5.636 1.838 9.07 2.877 12.139 4.322 12.766 5.092 11.37 7.471 15.54-2.501-9.847-5.639-17.997-6.482-30.639-.914-7.484-.553-14.988-.14-22.493.283-7.747 1.7-14.812 4.084-21.165l3.296-9.06-4.57.008c-1.881.231-3.302 1.173-4.482 3.015z" style="opacity:1;fill:#0080ff;fill-opacity:1;stroke:#000;stroke-width:.264583;stroke-dasharray:none;stroke-opacity:1"/><path inkscape:label="Right" sodipodi:nodetypes="ccccccc" d="M179.324 194.321c6.703-12.583 7.353-22.378 8.646-35.879 1.65 5.668 1.793 10.14 1.312 15.722 5.182-21.475 3.157-35.578-.488-56.558l-.85-4.022c-2.635-5.158-5.17-3.788-10.654-3.21 12.491 29.304 9.856 55.568 2.034 83.947z" style="display:inline;opacity:1;fill:#0080ff;fill-opacity:1;stroke:#000;stroke-width:.264583;stroke-dasharray:none;stroke-opacity:1"/></g><g inkscape:label="Crown" sodipodi:insensitive="true"><path inkscape:label="Front side" sodipodi:nodetypes="cscccccc" d="M183.674 95.632c-1.882.256-3.17.232-4.027-.165-1.357-.63-1.627-2.197-1.45-5.076-2.254 2.756-3.683 5.9-5.055 9.214 1.202 6.11 3.867 7.506 7.632 9.003 2.577-.173 5.677-2.27 11.891-4.801-7.126-.366-7.48-3.946-5.047-8.892-1.539.322-2.843.568-3.944.717" style="fill:#caff00;fill-opacity:1;stroke:#000;stroke-width:.264583;stroke-dasharray:none;stroke-opacity:1"/><path inkscape:label="Left back" sodipodi:nodetypes="cccc" d="m178.198 92.696 5.99-1.222-.302 4.089c-5.277.846-5.29-.998-5.688-2.867z" style="fill:#caff00;fill-opacity:1;stroke:#000;stroke-width:.264999;stroke-dasharray:none;stroke-opacity:1"/><path inkscape:label="Right back" sodipodi:nodetypes="cccc" d="M186.604 97.571c1.527.388 3.13.619 5.123.44-1.202 1.713-1.908 3.437-2.638 5.102-1.349-1.023-3.41-1.015-2.485-5.542z" style="fill:#caff00;fill-opacity:1;stroke:#000;stroke-width:.264583;stroke-dasharray:none;stroke-opacity:1"/><path inkscape:label="Crystal" sodipodi:nodetypes="ccc" d="M182.492 99.496c2.877 2.768-2.39 6.719-4.001 4.69-1.727-2.223.917-6.329 4-4.69z" style="fill:#ff2300;fill-opacity:1;stroke:#000;stroke-width:.264583;stroke-dasharray:none;stroke-opacity:1"/></g><g inkscape:label="Accessories"><g inkscape:label="Left"><ellipse inkscape:label="Left" cx="148.218" cy="109.652" rx="2.273" ry="2.482" style="opacity:1;fill:#ff4d00;fill-opacity:1;stroke:#000;stroke-width:.264583;stroke-dasharray:none;stroke-opacity:1"/><ellipse inkscape:label="Right" cx="150.971" cy="111.484" rx="2.312" ry="2.562" style="opacity:1;fill:#ff4d00;fill-opacity:1;stroke:#000;stroke-width:.264583;stroke-dasharray:none;stroke-opacity:1"/></g><g inkscape:label="Right" transform="translate(-.1 -.815)"><circle inkscape:label="Right" cx="178.135" cy="109.418" r="2.684" style="opacity:1;fill:#ff4d00;fill-opacity:1;stroke:#000;stroke-width:.342545;stroke-dasharray:none;stroke-opacity:1"/><circle inkscape:label="Right" cx="175.37" cy="112.203" r="2.684" style="fill:#ff4d00;fill-opacity:1;stroke:#000;stroke-width:.342545;stroke-dasharray:none;stroke-opacity:1"/></g></g></g></g></svg>