<svg xmlns="http://www.w3.org/2000/svg" xmlns:inkscape="http://www.inkscape.org/namespaces/inkscape" xmlns:sodipodi="http://sodipodi.sourceforge.net/DTD/sodipodi-0.dtd" xmlns:xlink="http://www.w3.org/1999/xlink" inkscape:version="1.2.2 (b0a8486541, 2022-12-01)" sodipodi:docname="derich_and_rosemary.svg" xml:space="preserve" width="210mm" height="297mm" viewBox="0 0 210 297"><sodipodi:namedview inkscape:current-layer="g30678" inkscape:cx="404.112" inkscape:cy="839.954" inkscape:deskcolor="#d1d1d1" inkscape:document-units="mm" inkscape:pagecheckerboard="0" inkscape:pageopacity="0" inkscape:showpageshadow="0" inkscape:window-height="1080" inkscape:window-maximized="1" inkscape:window-width="1920" inkscape:window-x="1920" inkscape:window-y="0" inkscape:zoom="5.657" bordercolor="#999999" borderopacity="1" pagecolor="#ffffff" showgrid="false"/><image sodipodi:insensitive="true" xlink:href="../krita_files/derich.png" width="338.667" height="338.667" x="-49.125" y="-41.469" preserveAspectRatio="none" style="opacity:.3"/><g inkscape:label="Line"><path inkscape:label="Neck" sodipodi:nodetypes="cccccc" d="m154.814 142.553-.12 9.722c2.05 2 4.959 2.404 9.742 2.402 3.303-.15 6.83.359 9.754-2.563l-.058-9.946z" style="opacity:1;fill:#ffeedb;fill-opacity:1;stroke:#000;stroke-width:.264583;stroke-dasharray:none;stroke-opacity:1"/><g inkscape:label="Left hand" style="opacity:.33"><path inkscape:label="Base" sodipodi:nodetypes="cccscccccscc" d="M104.41 220.463c-4.671.054-7.539-1.052-8.84.988l.267 1.66c-4.834 1.464-9.907 4.902-10.273 6.739-.143.717.133 4.479 3.029 5.287 1.71.59 1.858 1.39 2.271 2.945-1.39.677-2.614-.033-3.9-.336-.667.666-.51 1.141-.451 2.019 2.378 1.057 5.169 1.075 7.715-.4 5.776-.635 6.416-1.53 9.93-5.83 1.757-2.152 3.366-3.241 5.455-4.499z" style="opacity:1;fill:#ffeedb;fill-opacity:1;stroke:#000;stroke-width:.264583;stroke-linecap:round;stroke-linejoin:bevel;stroke-miterlimit:555;stroke-dasharray:none;stroke-opacity:1"/><path inkscape:label="The line between the third finger and the little finger" d="m90.733 238.185 2.643-1.27 1.944-.274" style="opacity:.33;fill:#ffeedb;fill-opacity:1;stroke:#000;stroke-width:.264583;stroke-linecap:round;stroke-linejoin:bevel;stroke-miterlimit:555;stroke-dasharray:none;stroke-opacity:1"/><path inkscape:label="The line between the middle finger and the third finger" sodipodi:nodetypes="cc" d="M88.777 235.256a58.242 58.242 0 0 0 2.622-1.393" style="opacity:.33;fill:#ffeedb;fill-opacity:1;stroke:#000;stroke-width:.286291;stroke-linecap:round;stroke-linejoin:bevel;stroke-miterlimit:555;stroke-dasharray:none;stroke-opacity:1"/><path inkscape:label="The line between the pointing finger and the middle finger" sodipodi:nodetypes="cc" d="M85.883 232.11c2.588-.783 4.01-1.969 5.854-3.814" style="opacity:.33;fill:#ffeedb;fill-opacity:1;stroke:#000;stroke-width:.264583;stroke-linecap:round;stroke-linejoin:bevel;stroke-miterlimit:555;stroke-dasharray:none;stroke-opacity:1"/><path inkscape:label="The line between the thumb and the pointing finger" sodipodi:nodetypes="cc" d="M95.61 223.175c.998-.313 2.21-.647 3.178-.78" style="opacity:.33;fill:#ffeedb;fill-opacity:1;stroke:#000;stroke-width:.264583;stroke-linecap:round;stroke-linejoin:bevel;stroke-miterlimit:555;stroke-dasharray:none;stroke-opacity:1"/></g><g inkscape:label="Yukata"><path inkscape:label="Collar" sodipodi:nodetypes="cccccccsc" d="M152.877 147.868c-4.722 4.373-6.315 5.073-9.467 6.754l.552 2.332 21.213 4.036 18.184-2.324.757-2.75c-2.653-2.908-5.085-5.003-7.606-7.18-5.352 4.378-7.36 5.058-12.194 5.367-4.412.282-9.294-1.833-11.439-6.235z" style="opacity:1;fill:#9aedff;fill-opacity:1;stroke:#000;stroke-width:.264583;stroke-dasharray:none;stroke-opacity:1"/><path inkscape:label="Base" sodipodi:nodetypes="ccscccccsccccc" d="M143.38 154.632c-7.309 5.758-7.637 4.77-13.258 10.67-4.754 5.088-3.266 26.865-11.468 39.22-4.387 6.608-9.12 10.596-15.282 15.23 4.919 10.487 13.06 17.446 20.684 22.506 3.774-3.918 6.965-8.294 10.23-12.629-1.525 27.458-.027 47.03 3.92 72.489l47.4.009c-.418-14.872.156-26.544 1.787-41.552 1.085-9.982 2.455-21.059 1.95-29.68 8.153-10.946 9.6-20.9 9.811-33.564-.085-13.118.34-28.105-7.162-34.048-5.123-4.667-2.965-2.444-7.806-7.4-6.674 4.585-33.154 4.598-40.805-1.251z" style="opacity:1;fill:#9aedff;fill-opacity:1;stroke:#000;stroke-width:.264583;stroke-dasharray:none;stroke-opacity:1"/><path inkscape:label="Behind the left armpit" sodipodi:nodetypes="ccc" d="M133.152 184.489c-.038-.025 2.806 11.193 3.408 21.576-.535 8.387-1.858 16.537-2.312 23.952" style="opacity:1;fill:none;fill-opacity:1;stroke:#000;stroke-width:.264583;stroke-dasharray:none;stroke-opacity:1"/><path inkscape:label="Behind the right armpit" sodipodi:nodetypes="csc" d="M192.304 183.06c-4.818 9.037-4.89 14.135-5.462 22.591-.662 9.761 1.91 14.436 2.502 25.239" style="opacity:1;fill:none;fill-opacity:1;stroke:#000;stroke-width:.264583;stroke-dasharray:none;stroke-opacity:1"/><path inkscape:label="Center line" sodipodi:nodetypes="ccc" d="M163.886 160.758c-.212 10.003-.75 40.859-.292 57.173-.1 1.84.188 6.107-.12 9.433" style="opacity:1;fill:none;fill-opacity:1;stroke:#000;stroke-width:.264583;stroke-dasharray:none;stroke-opacity:1"/><path inkscape:label="Ohashori line" sodipodi:nodetypes="ccc" d="M188.435 222.924c-8.46 3.084-15.508 3.786-24.773 4.446-11.55.16-19.472-1.19-28.746-4.545" style="opacity:1;fill:none;fill-opacity:1;stroke:#000;stroke-width:.264583;stroke-dasharray:none;stroke-opacity:1"/><path inkscape:label="Obi" sodipodi:nodetypes="ccccccc" d="M135.579 197.723c9.128 2.117 18.382 3.133 27.68 3.29 8.31-.055 16.55-.612 24.084-1.635l-.166 16.138c-10.565 2.444-13.57 3.75-23.74 3.892-10.58-.185-18.549-.18-27.854-3.426z" style="opacity:1;fill:#f7ffd2;fill-opacity:1;stroke:#000;stroke-width:.264583;stroke-dasharray:none;stroke-opacity:1"/><g inkscape:label="Bowknot"><path inkscape:label="Left bottom" sodipodi:nodetypes="cccc" d="M138.2 208.173c1.648 3.942 3.71 6.09 6.958 7.969 5.3.635 11.135-7.9 14.02-13.287-4.548-3.895-15.696-2.837-20.979 5.318z" style="opacity:1;fill:#f7ffd2;fill-opacity:1;stroke:#000;stroke-width:.264583;stroke-dasharray:none;stroke-opacity:1"/><path inkscape:label="Left top" sodipodi:nodetypes="cscccc" d="M158.018 196.247c-3.841-4.417-4.38-4.384-8.369-4.99-5.17-.788-8.922.637-13.228 2.782 1.875 6.173 5.102 15.312 10.696 17.265 5.06-1.434 8.16-3.855 11.653-6.9z" style="opacity:1;fill:#f7ffd2;fill-opacity:1;stroke:#000;stroke-width:.264583;stroke-dasharray:none;stroke-opacity:1"/><path inkscape:label="Right bottom" sodipodi:nodetypes="cccc" d="M186.265 208.451c-1.03 3.232-4.094 7.172-7.14 8.628-4.923-2.275-10.041-9.302-11.476-12.934 6.961.857 14.84-1.797 18.616 4.306z" style="opacity:1;fill:#f7ffd2;fill-opacity:1;stroke:#000;stroke-width:.264583;stroke-dasharray:none;stroke-opacity:1"/><path inkscape:label="Right top" sodipodi:nodetypes="cccccc" d="M167.698 196.502c2.461-2.73 4.983-3.638 7.488-4.161 6.408-.805 8.876-.784 13.08 1.465-1.466 5.743-3.89 14.207-9.102 18.147-4.4-1.772-9.043-5.279-11.499-8.573z" style="opacity:1;fill:#f7ffd2;fill-opacity:1;stroke:#000;stroke-width:.264583;stroke-dasharray:none;stroke-opacity:1"/><path inkscape:label="Center" sodipodi:nodetypes="csccc" d="M157.155 197.93c-1.557 6.69 1.725 7.016 6.184 7.631 4.782.66 5.362-.543 5.586-6.59-.29-4.113-1.773-3.676-5.491-4.39-4 .08-4.644-.029-6.279 3.35z" style="opacity:1;fill:#f7ffd2;fill-opacity:1;stroke:#000;stroke-width:.264583;stroke-dasharray:none;stroke-opacity:1"/></g></g><g inkscape:label="Head"><g inkscape:label="Ears"><path inkscape:label="Left" sodipodi:nodetypes="ccc" d="M143.705 129.848c.454 2.646 1.283 4.473 4.744 6.243-1.52-15.113-3.097-18.41-4.744-6.243z" style="fill:#ffeedb;stroke:#000;stroke-width:.268767;stroke-dasharray:none;stroke-opacity:1;fill-opacity:1"/><path inkscape:label="Right" sodipodi:nodetypes="ccc" d="M184.367 133.41c-1.15 1.6-2.743 2.735-4.576 3.133 1.813-8.792 3.668-18.717 4.576-3.132z" style="fill:#ffeedb;stroke:#000;stroke-width:.264583;stroke-dasharray:none;stroke-opacity:1;fill-opacity:1"/></g><path inkscape:label="Outline" sodipodi:nodetypes="ssssccccs" d="M172.64 145.813c-1.952 1.681-4.561 2.902-8.091 2.987-3.362.08-6.823-1.625-9.666-4.048-2.292-1.953-4.181-4.419-5.306-6.424-2.521-4.493-4.113-9.465-4.668-20.892.144-10.446 2.19-12.934 5.525-16.58 6.036-5.033 17.142-8.487 28.767 1.875 5.027 5.209 5.304 7.504 4.991 16.87-3.771 18.038-4.529 20.163-11.552 26.212z" style="display:inline;fill:#0080ff;fill-opacity:1;stroke:#000;stroke-width:.264583;stroke-dasharray:none;stroke-opacity:1"/><g inkscape:label="Twintail" sodipodi:insensitive="true"><path inkscape:label="Left" sodipodi:nodetypes="cccccsccccccc" d="M140.704 114.128c-5.839 13.769-7.344 31.526-6.592 48.516.97 7.386 1.06 8.513 2.437 15.675l3.155 12.238c-1.063-6.956-2.064-15.233-1.054-23.774 1.25 5.636 1.838 9.07 2.877 12.139 4.322 12.766 5.092 11.37 7.471 15.54-2.501-9.847-5.639-17.997-6.482-30.639-.914-7.484-.553-14.988-.14-22.493.283-7.747 1.7-14.812 4.084-21.165l3.296-9.06-4.57.008c-1.881.231-3.302 1.173-4.482 3.015z" style="opacity:1;fill:#0080ff;fill-opacity:1;stroke:#000;stroke-width:.264583;stroke-dasharray:none;stroke-opacity:1"/><path inkscape:label="Right" sodipodi:nodetypes="ccccccc" d="M179.324 194.321c6.703-12.583 7.353-22.378 8.646-35.879 1.65 5.668 1.793 10.14 1.312 15.722 5.182-21.475 3.157-35.578-.488-56.558l-.85-4.022c-2.635-5.158-5.17-3.788-10.654-3.21 12.491 29.304 9.856 55.568 2.034 83.947z" style="display:inline;opacity:1;fill:#0080ff;fill-opacity:1;stroke:#000;stroke-width:.264583;stroke-dasharray:none;stroke-opacity:1"/></g><g inkscape:label="Crown" sodipodi:insensitive="true"><path inkscape:label="Front side" sodipodi:nodetypes="cscccccc" d="M183.674 95.632c-1.882.256-3.17.232-4.027-.165-1.357-.63-1.627-2.197-1.45-5.076-2.254 2.756-3.683 5.9-5.055 9.214 1.202 6.11 3.867 7.506 7.632 9.003 2.577-.173 5.677-2.27 11.891-4.801-7.126-.366-7.48-3.946-5.047-8.892-1.539.322-2.843.568-3.944.717" style="fill:#caff00;fill-opacity:1;stroke:#000;stroke-width:.264583;stroke-dasharray:none;stroke-opacity:1"/><path inkscape:label="Left back" sodipodi:nodetypes="cccc" d="m178.198 92.696 5.99-1.222-.302 4.089c-5.277.846-5.29-.998-5.688-2.867z" style="fill:#caff00;fill-opacity:1;stroke:#000;stroke-width:.264999;stroke-dasharray:none;stroke-opacity:1"/><path inkscape:label="Right back" sodipodi:nodetypes="cccc" d="M186.604 97.571c1.527.388 3.13.619 5.123.44-1.202 1.713-1.908 3.437-2.638 5.102-1.349-1.023-3.41-1.015-2.485-5.542z" style="fill:#caff00;fill-opacity:1;stroke:#000;stroke-width:.264583;stroke-dasharray:none;stroke-opacity:1"/><path inkscape:label="Crystal" sodipodi:nodetypes="ccc" d="M182.492 99.496c2.877 2.768-2.39 6.719-4.001 4.69-1.727-2.223.917-6.329 4-4.69z" style="fill:#ff2300;fill-opacity:1;stroke:#000;stroke-width:.264583;stroke-dasharray:none;stroke-opacity:1"/></g><g inkscape:label="Accessories"><g inkscape:label="Left"><ellipse inkscape:label="Left" cx="148.218" cy="109.652" rx="2.273" ry="2.482" style="opacity:1;fill:#ff4d00;fill-opacity:1;stroke:#000;stroke-width:.264583;stroke-dasharray:none;stroke-opacity:1"/><ellipse inkscape:label="Right" cx="150.971" cy="111.484" rx="2.312" ry="2.562" style="opacity:1;fill:#ff4d00;fill-opacity:1;stroke:#000;stroke-width:.264583;stroke-dasharray:none;stroke-opacity:1"/></g><g inkscape:label="Right" transform="translate(-.1 -.815)"><circle inkscape:label="Right" cx="178.135" cy="109.418" r="2.684" style="opacity:1;fill:#ff4d00;fill-opacity:1;stroke:#000;stroke-width:.342545;stroke-dasharray:none;stroke-opacity:1"/><circle inkscape:label="Right" cx="175.37" cy="112.203" r="2.684" style="fill:#ff4d00;fill-opacity:1;stroke:#000;stroke-width:.342545;stroke-dasharray:none;stroke-opacity:1"/></g></g></g></g></svg>