<svg xmlns="http://www.w3.org/2000/svg" xmlns:inkscape="http://www.inkscape.org/namespaces/inkscape" xmlns:sodipodi="http://sodipodi.sourceforge.net/DTD/sodipodi-0.dtd" xmlns:xlink="http://www.w3.org/1999/xlink" inkscape:version="1.2.2 (b0a8486541, 2022-12-01)" sodipodi:docname="derich_and_rosemary.svg" xml:space="preserve" width="210mm" height="297mm" viewBox="0 0 210 297"><sodipodi:namedview inkscape:current-layer="g46381" inkscape:cx="370.436" inkscape:cy="908.588" inkscape:deskcolor="#d1d1d1" inkscape:document-units="mm" inkscape:pagecheckerboard="0" inkscape:pageopacity="0" inkscape:showpageshadow="0" inkscape:window-height="1080" inkscape:window-maximized="1" inkscape:window-width="1920" inkscape:window-x="1920" inkscape:window-y="0" inkscape:zoom="11.314" bordercolor="#999999" borderopacity="1" pagecolor="#ffffff" showgrid="false"/><image sodipodi:insensitive="true" xlink:href="../krita_files/derich.png" width="338.667" height="338.667" x="-49.125" y="-41.469" preserveAspectRatio="none" style="opacity:.3"/><g inkscape:label="Rosemary" style="opacity:1"><g inkscape:label="Yukata"><path inkscape:label="Collar" sodipodi:nodetypes="ccccc" d="M32.678 109.428c-1.317 1.444-3.014 3.285-6.158 5.844 16.74 5.177 27.227 8.523 43.014.502-1.562-.483-8.862-9.562-8.057-9.463z" style="opacity:1;fill:#37b053;fill-opacity:1;stroke:#078c53;stroke-width:.264583;stroke-linecap:round;stroke-linejoin:bevel;stroke-miterlimit:555"/><path inkscape:label="Base" sodipodi:nodetypes="cccsccsccscc" d="M26.794 115.157C10.81 129.006 9.19 127.499 6.43 145.834c-2.613 19.192.338 37.26 10.154 50.555-2.755 27.589-2.105 55.8 1.818 80.925 1.116 7.147 1.559 14.38 2.649 21.53l54.726.268c3.158-19.688 4.944-35.392 5.758-55.268.38-9.26-.419-18.464-.742-27.725 5.99-1.27 9.907-3.993 13.375-6.826-2.034-10.721-2.717-21.548-2.86-32.422-.425-32.132.655-47.288-21.905-61.22-15.465 3.892-29.148 4.876-42.608-.494z" style="opacity:1;fill:#37b053;fill-opacity:1;stroke:#078c53;stroke-width:.264583;stroke-linecap:round;stroke-linejoin:bevel;stroke-miterlimit:555"/><path inkscape:label="Behind the left armpit" sodipodi:nodetypes="ccc" d="M18.268 136.438c4.393 15.223 2.57 28.7.958 43.945-.369 3.49-1.257 1.446-2.965 15.676" style="opacity:1;fill:none;fill-opacity:1;stroke:#078c53;stroke-width:.264583;stroke-linecap:round;stroke-linejoin:bevel;stroke-miterlimit:555"/><path inkscape:label="Behind the right armpit" sodipodi:nodetypes="ccc" d="M77.147 139.472c-6.65 11.367-4.819 31.953 1.419 51.228 1.326 8.433 1.68 16.935 2.134 25.445" style="opacity:1;fill:none;fill-opacity:1;stroke:#078c53;stroke-width:.264583;stroke-linecap:round;stroke-linejoin:bevel;stroke-miterlimit:555"/><g inkscape:label="Uchiwa" style="opacity:1"><path inkscape:label="The fan part" sodipodi:nodetypes="ccccc" d="M43.997 122.144c-9.743 1.864-17.845 27.617-7.534 37.313l28.153.703c4.648-5.628 8.43-12.856 9.376-19.446 1.753-13.69-19.162-19.547-29.995-18.57z" style="opacity:1;fill:#37b053;fill-opacity:1;stroke:#078c53;stroke-width:.264583;stroke-linecap:round;stroke-linejoin:bevel;stroke-miterlimit:555"/><path inkscape:label="Handle" d="m32.845 183.607-1.623 2.221 3.478 2.026 2.496-4.137z" style="opacity:1;fill:#d7f0aa;fill-opacity:1;stroke:#078c53;stroke-width:.264583;stroke-linecap:round;stroke-linejoin:bevel;stroke-miterlimit:555"/></g><path inkscape:label="Obi" sodipodi:nodetypes="ccccc" d="M18.768 181.964c20.316 4.492 38.132 4.893 56.94-.924-1.54-6.984-2.439-12.338-2.662-19.407l-52.077-1.24c-.37 7.163-1.208 15.118-2.2 21.57z" style="opacity:1;fill:#d7f0aa;fill-opacity:1;stroke:#078c53;stroke-width:.264583;stroke-linecap:round;stroke-linejoin:bevel;stroke-miterlimit:555"/><g inkscape:label="Bowknot" style="opacity:1"><path inkscape:label="Center" sodipodi:nodetypes="cccccc" d="M41.947 158.585c-.526 3.265-1.163 6.984.285 10.074l5.401.453 3.914-.345c1.838-3.014 2.165-6.483 2.023-9.94-4.805-2.445-8.754-1.711-11.623-.242z" style="opacity:1;fill:#d7f0aa;fill-opacity:1;stroke:#078c53;stroke-width:.264583;stroke-linecap:round;stroke-linejoin:bevel;stroke-miterlimit:555"/><path inkscape:label="Left upper" sodipodi:nodetypes="ccscc" d="M42.318 158.37c-7.22-4.612-16.105-2.998-22.44.438 3.47 6.564 6.406 15.89 12.458 13.635 3.528-1.314 6.72-3.332 9.466-5.022z" style="opacity:1;fill:#d7f0aa;fill-opacity:1;stroke:#078c53;stroke-width:.264583;stroke-linecap:round;stroke-linejoin:bevel;stroke-miterlimit:555"/><path inkscape:label="Left lower" sodipodi:nodetypes="ccccccc" d="M25.758 167.675c-3.138 2.037-4.964 4.393-6.94 7.7 1.538 2.814 4.027 4.737 6.318 6.243 7.334-3.858 12.267-7.57 17.414-13.244l-.207-1.413s-16.545 1.037-16.585.714z" style="opacity:1;fill:#d7f0aa;fill-opacity:1;stroke:#078c53;stroke-width:.264583;stroke-linecap:round;stroke-linejoin:bevel;stroke-miterlimit:555"/><path inkscape:label="Right upper" sodipodi:nodetypes="ccccc" d="M52.207 160.108c7.332-4.406 19.014-4.699 24.413-.104-1.63 4.718-5.564 11.382-9.754 14.287-6.109-.228-10.685-4.724-15.193-8.362 0 0 .732-5.751.534-5.821z" style="opacity:1;fill:#d7f0aa;fill-opacity:1;stroke:#078c53;stroke-width:.264583;stroke-linecap:round;stroke-linejoin:bevel;stroke-miterlimit:555"/><path inkscape:label="Right lower" sodipodi:nodetypes="cccc" d="M52.94 166.788c4.105 5.904 8.48 11.734 17.27 15.548 2.652-3.095 4.546-5.64 5.892-7.664-5.829-7.634-13.934-6.544-23.163-7.884z" style="opacity:1;fill:#d7f0aa;fill-opacity:1;stroke:#078c53;stroke-width:.264583;stroke-linecap:round;stroke-linejoin:bevel;stroke-miterlimit:555"/></g><path inkscape:label="Center line" d="m49.14 118.645.103 23.48-2.382 53.399" style="opacity:1;fill:none;fill-opacity:1;stroke:#078c53;stroke-width:.265;stroke-linecap:round;stroke-linejoin:bevel;stroke-miterlimit:555;stroke-dasharray:none"/><path inkscape:label="Ohashori" sodipodi:nodetypes="cc" d="M78.338 190.218c-22.38 7.344-39.07 7.244-61.074-.427" style="opacity:1;fill:none;fill-opacity:1;stroke:#078c53;stroke-width:.262639;stroke-linecap:round;stroke-linejoin:bevel;stroke-miterlimit:555;stroke-dasharray:none"/></g><g inkscape:label="Head"><path inkscape:label="Outline" sodipodi:nodetypes="cccccccccccccccccccccccccccccc" d="m47.587 48.373-3.663-.16C24.497 53.22 20.732 67.91 23.175 82.489c.065 10.297-.001 19.618-6.955 26.582 2.515 1.005 6.27-.67 8.918-2.546l-2.174 2.365-1.795 1.613-2.149.794 5.695-1.933 2.158-.983c-.935 1.842-2.683 3.312-4.065 4.435 3.68-.284 6.466-1.91 9.613-3.642-1.071 2.149-3.425 3.432-5.065 4.652 5.83-1.075 10.348.127 13.893-3.944-.355 1.018-.952 2.057-1.58 3.098 2.086-.78 3.574-1.87 5.049-3.443 1.091 2.26 2.73 3.453 4.685 4.884-1.238-3.02-1.19-6.63-.62-6.998 1.888 2.53 4.081 3.553 6.457 4.313 1.567.8 3.533 1.616 5.086 1.623-1.593-1.662-4.217-4.152-4.589-6.166l3.426 2.566c1.923 1.3 3.671 1.889 5.9 2.1 1.483.709 2.73.737 4.303.622 1.073.488 1.942 1.911 3.17 1.617-2.163-1.653-3.05-3.848-3.959-6.134 2.721 2.169 6.11 4.3 9.336 3.837-7.047-10.185-5.741-23.37-4.63-34.111 1.77-22.226-12.851-30.012-24.602-29.791Z" style="opacity:1;fill:#64c364;fill-opacity:1;stroke:#000;stroke-width:.264583;stroke-linecap:round;stroke-linejoin:bevel;stroke-miterlimit:555;stroke-dasharray:none;stroke-opacity:1"/><g inkscape:label="Hair bundles"><path inkscape:label="Bottom 1" sodipodi:nodetypes="cc" d="M33.52 103.803c-2.013 2.022-4.397 3.354-6.85 4.74" style="opacity:1;fill:none;fill-opacity:1;stroke:#078c53;stroke-width:.264583;stroke-linecap:round;stroke-linejoin:bevel;stroke-miterlimit:555;stroke-dasharray:none;stroke-opacity:1"/><path inkscape:label="Bottom 2" sodipodi:nodetypes="cc" d="M36.052 106.444c-1.094 1.321-2.306 2.115-3.81 2.828" style="opacity:1;fill:none;fill-opacity:1;stroke:#078c53;stroke-width:.264583;stroke-linecap:round;stroke-linejoin:bevel;stroke-miterlimit:555;stroke-dasharray:none;stroke-opacity:1"/><path inkscape:label="Bottom 3" sodipodi:nodetypes="cc" d="M43.288 105.56c.267 1.505.663 2.907 1.443 4.003" style="opacity:1;fill:none;fill-opacity:1;stroke:#078c53;stroke-width:.264583;stroke-linecap:round;stroke-linejoin:bevel;stroke-miterlimit:555;stroke-dasharray:none;stroke-opacity:1"/><path inkscape:label="Bottom 4" d="m49.158 106.642-.539 1.02" style="opacity:1;fill:none;fill-opacity:1;stroke:#078c53;stroke-width:.264583;stroke-linecap:round;stroke-linejoin:bevel;stroke-miterlimit:555;stroke-dasharray:none;stroke-opacity:1"/><path inkscape:label="Bottom 5" sodipodi:nodetypes="cc" d="M51.986 107.636c.937 1.938 2.587 3.769 5.286 5.046" style="opacity:1;fill:none;fill-opacity:1;stroke:#078c53;stroke-width:.264583;stroke-linecap:round;stroke-linejoin:bevel;stroke-miterlimit:555;stroke-dasharray:none;stroke-opacity:1"/><path inkscape:label="Bottom 6" sodipodi:nodetypes="cc" d="M60.747 108.32c1.165 1.384 2.586 2.688 4.527 3.646" style="opacity:1;fill:none;fill-opacity:1;stroke:#078c53;stroke-width:.264583;stroke-linecap:round;stroke-linejoin:bevel;stroke-miterlimit:555;stroke-dasharray:none;stroke-opacity:1"/><path inkscape:label="Bottom 7" sodipodi:nodetypes="cc" d="M62.248 104.025c.719 3.764 4.294 5.609 8.223 9.21" style="opacity:1;fill:none;fill-opacity:1;stroke:#078c53;stroke-width:.264583;stroke-linecap:round;stroke-linejoin:bevel;stroke-miterlimit:555;stroke-dasharray:none;stroke-opacity:1"/><path inkscape:label="Bottom 8" sodipodi:nodetypes="cc" d="M72.666 107.5c1.317 1.991 3.029 3.073 5.073 4.248" style="opacity:1;fill:none;fill-opacity:1;stroke:#078c53;stroke-width:.264583;stroke-linecap:round;stroke-linejoin:bevel;stroke-miterlimit:555;stroke-dasharray:none;stroke-opacity:1"/><path inkscape:label="Upper 1" sodipodi:nodetypes="cc" d="M42.223 56.55c-7.218 2.483-8.428 12.027-9.54 18.683" style="opacity:1;fill:none;stroke:#078c53;stroke-width:.264583;stroke-linecap:round;stroke-linejoin:bevel;stroke-miterlimit:555"/><path inkscape:label="Upper 2" sodipodi:nodetypes="cc" d="M43.13 72.28c-2.815 8.145-3.67 17.047-2.024 24.987" style="opacity:1;fill:none;stroke:#078c53;stroke-width:.264583;stroke-linecap:round;stroke-linejoin:bevel;stroke-miterlimit:555"/><path inkscape:label="Upper 3" sodipodi:nodetypes="cc" d="M59.869 67.024c4.456 3.451 2.993 18.63 4.14 25.911" style="opacity:1;fill:none;stroke:#078c53;stroke-width:.264583;stroke-linecap:round;stroke-linejoin:bevel;stroke-miterlimit:555"/></g></g><g inkscape:label="Hand" style="display:inline"><path inkscape:label="Pointing finger's nail" sodipodi:nodetypes="ccc" d="M92.961 242.783c2.165 1.18 3.146.294 2.474-2.028-.65.168-2.218 1.147-2.474 2.028z" style="opacity:1;fill:#fff;fill-opacity:1;stroke:#000;stroke-width:.264999;stroke-linecap:round;stroke-linejoin:bevel;stroke-miterlimit:555;stroke-dasharray:none;stroke-opacity:1"/><path inkscape:label="Base" sodipodi:nodetypes="ccccccccccccc" d="m84.052 213.49-.354 8.324-1.708 4.765c-.341 3.376.415 6.603 1.843 9.55 1.148 1.591 2.63 1.243 4.308.805 2 1.314 1.81 1.776 2.294 3.57 2.173 3.487 3.569 3.213 5.353.253 1.773.743 2.56-1.15 2.982-2.517 3.702 3.093 6.679 1.13 2.892-2.667 8.742 3.605-4.794-12.27-5.867-13.863-.446-1.494-.827-2.667-1.998-3.637-1.191-3.16-1.846-5.55-2.822-8.78z" style="opacity:1;display:inline;fill:#ffeedb;fill-opacity:1;stroke:#000;stroke-width:.264999;stroke-linecap:round;stroke-linejoin:bevel;stroke-miterlimit:555;stroke-dasharray:none;stroke-opacity:1"/><path inkscape:label="Between fingers" sodipodi:nodetypes="ccccc" d="M95.785 240.813c-.606-.601-.693-1.328-.832-2.043l-1.053.255c.645.618 1.544 1.161 1.626 2.114z" style="opacity:1;fill:#fff;fill-opacity:.298039;stroke:#000;stroke-width:.264999;stroke-linecap:round;stroke-linejoin:bevel;stroke-miterlimit:555;stroke-dasharray:none;stroke-opacity:1"/></g></g><g inkscape:label="Derich" sodipodi:insensitive="true"><path inkscape:label="Neck" sodipodi:nodetypes="cccccc" d="m154.814 142.553-.12 9.722c2.05 2 4.959 2.404 9.742 2.402 3.303-.15 6.83.359 9.754-2.563l-.058-9.946z" style="opacity:1;fill:#ffeedb;fill-opacity:1;stroke:#000;stroke-width:.264583;stroke-dasharray:none;stroke-opacity:1"/><g inkscape:label="Left hand" style="opacity:1"><path inkscape:label="Base" sodipodi:nodetypes="cccscccccscc" d="M104.41 220.463c-4.671.054-7.539-1.052-8.84.988l.267 1.66c-4.834 1.464-9.907 4.902-10.273 6.739-.143.717.133 4.479 3.029 5.287 1.71.59 1.858 1.39 2.271 2.945-1.39.677-2.614-.033-3.9-.336-.667.666-.51 1.141-.451 2.019 2.378 1.057 5.169 1.075 7.715-.4 5.776-.635 6.416-1.53 9.93-5.83 1.757-2.152 3.366-3.241 5.455-4.499z" style="opacity:1;fill:#ffeedb;fill-opacity:1;stroke:#000;stroke-width:.264583;stroke-linecap:round;stroke-linejoin:bevel;stroke-miterlimit:555;stroke-dasharray:none;stroke-opacity:1"/><path inkscape:label="The line between the third finger and the little finger" d="m90.733 238.185 2.643-1.27 1.944-.274" style="opacity:.33;fill:#ffeedb;fill-opacity:1;stroke:#000;stroke-width:.264583;stroke-linecap:round;stroke-linejoin:bevel;stroke-miterlimit:555;stroke-dasharray:none;stroke-opacity:1"/><path inkscape:label="The line between the middle finger and the third finger" sodipodi:nodetypes="cc" d="M88.777 235.256a58.242 58.242 0 0 0 2.622-1.393" style="opacity:.33;fill:#ffeedb;fill-opacity:1;stroke:#000;stroke-width:.286291;stroke-linecap:round;stroke-linejoin:bevel;stroke-miterlimit:555;stroke-dasharray:none;stroke-opacity:1"/><path inkscape:label="The line between the pointing finger and the middle finger" sodipodi:nodetypes="cc" d="M85.883 232.11c2.588-.783 4.01-1.969 5.854-3.814" style="opacity:.33;fill:#ffeedb;fill-opacity:1;stroke:#000;stroke-width:.264583;stroke-linecap:round;stroke-linejoin:bevel;stroke-miterlimit:555;stroke-dasharray:none;stroke-opacity:1"/><path inkscape:label="The line between the thumb and the pointing finger" sodipodi:nodetypes="cc" d="M95.61 223.175c.998-.313 2.21-.647 3.178-.78" style="opacity:.33;fill:#ffeedb;fill-opacity:1;stroke:#000;stroke-width:.264583;stroke-linecap:round;stroke-linejoin:bevel;stroke-miterlimit:555;stroke-dasharray:none;stroke-opacity:1"/></g><g inkscape:label="Yukata"><path inkscape:label="Collar" sodipodi:nodetypes="cccccccsc" d="M152.877 147.868c-4.722 4.373-6.315 5.073-9.467 6.754l.552 2.332 21.213 4.036 18.184-2.324.757-2.75c-2.653-2.908-5.085-5.003-7.606-7.18-5.352 4.378-7.36 5.058-12.194 5.367-4.412.282-9.294-1.833-11.439-6.235z" style="opacity:1;fill:#9aedff;fill-opacity:1;stroke:#000;stroke-width:.264583;stroke-dasharray:none;stroke-opacity:1"/><path inkscape:label="Base" sodipodi:nodetypes="ccscccccsccccc" d="M143.38 154.632c-7.309 5.758-7.637 4.77-13.258 10.67-4.754 5.088-3.266 26.865-11.468 39.22-4.387 6.608-9.12 10.596-15.282 15.23 4.919 10.487 13.06 17.446 20.684 22.506 3.774-3.918 6.965-8.294 10.23-12.629-1.525 27.458-.027 47.03 3.92 72.489l47.4.009c-.418-14.872.156-26.544 1.787-41.552 1.085-9.982 2.455-21.059 1.95-29.68 8.153-10.946 9.6-20.9 9.811-33.564-.085-13.118.34-28.105-7.162-34.048-5.123-4.667-2.965-2.444-7.806-7.4-6.674 4.585-33.154 4.598-40.805-1.251z" style="opacity:1;fill:#9aedff;fill-opacity:1;stroke:#000;stroke-width:.264583;stroke-dasharray:none;stroke-opacity:1"/><path inkscape:label="Behind the left armpit" sodipodi:nodetypes="ccc" d="M133.152 184.489c-.038-.025 2.806 11.193 3.408 21.576-.535 8.387-1.858 16.537-2.312 23.952" style="opacity:1;fill:none;fill-opacity:1;stroke:#000;stroke-width:.264583;stroke-dasharray:none;stroke-opacity:1"/><path inkscape:label="Behind the right armpit" sodipodi:nodetypes="csc" d="M192.304 183.06c-4.818 9.037-4.89 14.135-5.462 22.591-.662 9.761 1.91 14.436 2.502 25.239" style="opacity:1;fill:none;fill-opacity:1;stroke:#000;stroke-width:.264583;stroke-dasharray:none;stroke-opacity:1"/><path inkscape:label="Center line" sodipodi:nodetypes="ccc" d="M163.886 160.758c-.212 10.003-.75 40.859-.292 57.173-.1 1.84.188 6.107-.12 9.433" style="opacity:1;fill:none;fill-opacity:1;stroke:#000;stroke-width:.264583;stroke-dasharray:none;stroke-opacity:1"/><path inkscape:label="Ohashori line" sodipodi:nodetypes="ccc" d="M188.435 222.924c-8.46 3.084-15.508 3.786-24.773 4.446-11.55.16-19.472-1.19-28.746-4.545" style="opacity:1;fill:none;fill-opacity:1;stroke:#000;stroke-width:.264583;stroke-dasharray:none;stroke-opacity:1"/><path inkscape:label="Obi" sodipodi:nodetypes="ccccccc" d="M135.579 197.723c9.128 2.117 18.382 3.133 27.68 3.29 8.31-.055 16.55-.612 24.084-1.635l-.166 16.138c-10.565 2.444-13.57 3.75-23.74 3.892-10.58-.185-18.549-.18-27.854-3.426z" style="opacity:1;fill:#f7ffd2;fill-opacity:1;stroke:#000;stroke-width:.264583;stroke-dasharray:none;stroke-opacity:1"/><g inkscape:label="Bowknot"><path inkscape:label="Left bottom" sodipodi:nodetypes="cccc" d="M138.2 208.173c1.648 3.942 3.71 6.09 6.958 7.969 5.3.635 11.135-7.9 14.02-13.287-4.548-3.895-15.696-2.837-20.979 5.318z" style="opacity:1;fill:#f7ffd2;fill-opacity:1;stroke:#000;stroke-width:.264583;stroke-dasharray:none;stroke-opacity:1"/><path inkscape:label="Left top" sodipodi:nodetypes="cscccc" d="M158.018 196.247c-3.841-4.417-4.38-4.384-8.369-4.99-5.17-.788-8.922.637-13.228 2.782 1.875 6.173 5.102 15.312 10.696 17.265 5.06-1.434 8.16-3.855 11.653-6.9z" style="opacity:1;fill:#f7ffd2;fill-opacity:1;stroke:#000;stroke-width:.264583;stroke-dasharray:none;stroke-opacity:1"/><path inkscape:label="Right bottom" sodipodi:nodetypes="cccc" d="M186.265 208.451c-1.03 3.232-4.094 7.172-7.14 8.628-4.923-2.275-10.041-9.302-11.476-12.934 6.961.857 14.84-1.797 18.616 4.306z" style="opacity:1;fill:#f7ffd2;fill-opacity:1;stroke:#000;stroke-width:.264583;stroke-dasharray:none;stroke-opacity:1"/><path inkscape:label="Right top" sodipodi:nodetypes="cccccc" d="M167.698 196.502c2.461-2.73 4.983-3.638 7.488-4.161 6.408-.805 8.876-.784 13.08 1.465-1.466 5.743-3.89 14.207-9.102 18.147-4.4-1.772-9.043-5.279-11.499-8.573z" style="opacity:1;fill:#f7ffd2;fill-opacity:1;stroke:#000;stroke-width:.264583;stroke-dasharray:none;stroke-opacity:1"/><path inkscape:label="Center" sodipodi:nodetypes="csccc" d="M157.155 197.93c-1.557 6.69 1.725 7.016 6.184 7.631 4.782.66 5.362-.543 5.586-6.59-.29-4.113-1.773-3.676-5.491-4.39-4 .08-4.644-.029-6.279 3.35z" style="opacity:1;fill:#f7ffd2;fill-opacity:1;stroke:#000;stroke-width:.264583;stroke-dasharray:none;stroke-opacity:1"/></g></g><g inkscape:label="Head"><g inkscape:label="Ears"><path inkscape:label="Left" sodipodi:nodetypes="ccc" d="M143.705 129.848c.454 2.646 1.283 4.473 4.744 6.243-1.52-15.113-3.097-18.41-4.744-6.243z" style="fill:#ffeedb;fill-opacity:1;stroke:#000;stroke-width:.268767;stroke-dasharray:none;stroke-opacity:1"/><path inkscape:label="Right" sodipodi:nodetypes="ccc" d="M184.367 133.41c-1.15 1.6-2.743 2.735-4.576 3.133 1.813-8.792 3.668-18.717 4.576-3.132z" style="fill:#ffeedb;fill-opacity:1;stroke:#000;stroke-width:.264583;stroke-dasharray:none;stroke-opacity:1"/></g><path inkscape:label="Outline" sodipodi:nodetypes="ssssccccs" d="M172.64 145.813c-1.952 1.681-4.561 2.902-8.091 2.987-3.362.08-6.823-1.625-9.666-4.048-2.292-1.953-4.181-4.419-5.306-6.424-2.521-4.493-4.113-9.465-4.668-20.892.144-10.446 2.19-12.934 5.525-16.58 6.036-5.033 17.142-8.487 28.767 1.875 5.027 5.209 5.304 7.504 4.991 16.87-3.771 18.038-4.529 20.163-11.552 26.212z" style="display:inline;fill:#0080ff;fill-opacity:1;stroke:#000;stroke-width:.264583;stroke-dasharray:none;stroke-opacity:1"/><g inkscape:label="Twintail" sodipodi:insensitive="true"><path inkscape:label="Left" sodipodi:nodetypes="cccccsccccccc" d="M140.704 114.128c-5.839 13.769-7.344 31.526-6.592 48.516.97 7.386 1.06 8.513 2.437 15.675l3.155 12.238c-1.063-6.956-2.064-15.233-1.054-23.774 1.25 5.636 1.838 9.07 2.877 12.139 4.322 12.766 5.092 11.37 7.471 15.54-2.501-9.847-5.639-17.997-6.482-30.639-.914-7.484-.553-14.988-.14-22.493.283-7.747 1.7-14.812 4.084-21.165l3.296-9.06-4.57.008c-1.881.231-3.302 1.173-4.482 3.015z" style="opacity:1;fill:#0080ff;fill-opacity:1;stroke:#000;stroke-width:.264583;stroke-dasharray:none;stroke-opacity:1"/><path inkscape:label="Right" sodipodi:nodetypes="ccccccc" d="M179.324 194.321c6.703-12.583 7.353-22.378 8.646-35.879 1.65 5.668 1.793 10.14 1.312 15.722 5.182-21.475 3.157-35.578-.488-56.558l-.85-4.022c-2.635-5.158-5.17-3.788-10.654-3.21 12.491 29.304 9.856 55.568 2.034 83.947z" style="display:inline;opacity:1;fill:#0080ff;fill-opacity:1;stroke:#000;stroke-width:.264583;stroke-dasharray:none;stroke-opacity:1"/></g><g inkscape:label="Crown" sodipodi:insensitive="true"><path inkscape:label="Front side" sodipodi:nodetypes="cscccccc" d="M183.674 95.632c-1.882.256-3.17.232-4.027-.165-1.357-.63-1.627-2.197-1.45-5.076-2.254 2.756-3.683 5.9-5.055 9.214 1.202 6.11 3.867 7.506 7.632 9.003 2.577-.173 5.677-2.27 11.891-4.801-7.126-.366-7.48-3.946-5.047-8.892-1.539.322-2.843.568-3.944.717" style="fill:#caff00;fill-opacity:1;stroke:#000;stroke-width:.264583;stroke-dasharray:none;stroke-opacity:1"/><path inkscape:label="Left back" sodipodi:nodetypes="cccc" d="m178.198 92.696 5.99-1.222-.302 4.089c-5.277.846-5.29-.998-5.688-2.867z" style="fill:#caff00;fill-opacity:1;stroke:#000;stroke-width:.264999;stroke-dasharray:none;stroke-opacity:1"/><path inkscape:label="Right back" sodipodi:nodetypes="cccc" d="M186.604 97.571c1.527.388 3.13.619 5.123.44-1.202 1.713-1.908 3.437-2.638 5.102-1.349-1.023-3.41-1.015-2.485-5.542z" style="fill:#caff00;fill-opacity:1;stroke:#000;stroke-width:.264583;stroke-dasharray:none;stroke-opacity:1"/><path inkscape:label="Crystal" sodipodi:nodetypes="ccc" d="M182.492 99.496c2.877 2.768-2.39 6.719-4.001 4.69-1.727-2.223.917-6.329 4-4.69z" style="fill:#ff2300;fill-opacity:1;stroke:#000;stroke-width:.264583;stroke-dasharray:none;stroke-opacity:1"/></g><g inkscape:label="Accessories"><g inkscape:label="Left"><ellipse inkscape:label="Left" cx="148.218" cy="109.652" rx="2.273" ry="2.482" style="opacity:1;fill:#ff4d00;fill-opacity:1;stroke:#000;stroke-width:.264583;stroke-dasharray:none;stroke-opacity:1"/><ellipse inkscape:label="Right" cx="150.971" cy="111.484" rx="2.312" ry="2.562" style="opacity:1;fill:#ff4d00;fill-opacity:1;stroke:#000;stroke-width:.264583;stroke-dasharray:none;stroke-opacity:1"/></g><g inkscape:label="Right" transform="translate(-.1 -.815)"><circle inkscape:label="Right" cx="178.135" cy="109.418" r="2.684" style="opacity:1;fill:#ff4d00;fill-opacity:1;stroke:#000;stroke-width:.342545;stroke-dasharray:none;stroke-opacity:1"/><circle inkscape:label="Right" cx="175.37" cy="112.203" r="2.684" style="fill:#ff4d00;fill-opacity:1;stroke:#000;stroke-width:.342545;stroke-dasharray:none;stroke-opacity:1"/></g></g></g></g></svg>