<svg xmlns="http://www.w3.org/2000/svg" xmlns:inkscape="http://www.inkscape.org/namespaces/inkscape" xmlns:sodipodi="http://sodipodi.sourceforge.net/DTD/sodipodi-0.dtd" inkscape:version="1.2.2 (b0a8486541, 2022-12-01)" sodipodi:docname="derich_and_rosemary.svg" xml:space="preserve" width="210mm" height="297mm" viewBox="0 0 210 297"><defs><pattern inkscape:collect="always" inkscape:isstock="true" inkscape:stockid="Polka dots, large white" id="a" width="10" height="10" patternTransform="scale(10)" patternUnits="userSpaceOnUse"><circle cx="2.567" cy=".81" r=".45" style="fill:#fff;stroke:none"/><circle cx="3.048" cy="2.33" r=".45" style="fill:#fff;stroke:none"/><circle cx="4.418" cy="2.415" r=".45" style="fill:#fff;stroke:none"/><circle cx="1.844" cy="3.029" r=".45" style="fill:#fff;stroke:none"/><circle cx="6.08" cy="1.363" r=".45" style="fill:#fff;stroke:none"/><circle cx="5.819" cy="4.413" r=".45" style="fill:#fff;stroke:none"/><circle cx="4.305" cy="4.048" r=".45" style="fill:#fff;stroke:none"/><circle cx="5.541" cy="3.045" r=".45" style="fill:#fff;stroke:none"/><circle cx="4.785" cy="5.527" r=".45" style="fill:#fff;stroke:none"/><circle cx="2.667" cy="5.184" r=".45" style="fill:#fff;stroke:none"/><circle cx="7.965" cy="1.448" r=".45" style="fill:#fff;stroke:none"/><circle cx="7.047" cy="5.049" r=".45" style="fill:#fff;stroke:none"/><circle cx="4.34" cy=".895" r=".45" style="fill:#fff;stroke:none"/><circle cx="7.125" cy=".34" r=".45" style="fill:#fff;stroke:none"/><circle cx="7.125" cy="10.34" r=".45" style="fill:#fff;stroke:none"/><circle cx="9.55" cy="1.049" r=".45" style="fill:#fff;stroke:none"/><circle cx="7.006" cy="2.689" r=".45" style="fill:#fff;stroke:none"/><circle cx="8.909" cy="2.689" r=".45" style="fill:#fff;stroke:none"/><circle cx="9.315" cy="4.407" r=".45" style="fill:#fff;stroke:none"/><circle cx="7.82" cy="3.87" r=".45" style="fill:#fff;stroke:none"/><circle cx="8.27" cy="5.948" r=".45" style="fill:#fff;stroke:none"/><circle cx="7.973" cy="7.428" r=".45" style="fill:#fff;stroke:none"/><circle cx="9.342" cy="8.072" r=".45" style="fill:#fff;stroke:none"/><circle cx="8.206" cy="9.315" r=".45" style="fill:#fff;stroke:none"/><circle cx="9.682" cy="9.475" r=".45" style="fill:#fff;stroke:none"/><circle cx="-.318" cy="9.475" r=".45" style="fill:#fff;stroke:none"/><circle cx="9.688" cy="6.186" r=".45" style="fill:#fff;stroke:none"/><circle cx="-.312" cy="6.186" r=".45" style="fill:#fff;stroke:none"/><circle cx="3.379" cy="6.296" r=".45" style="fill:#fff;stroke:none"/><circle cx="2.871" cy="8.204" r=".45" style="fill:#fff;stroke:none"/><circle cx="4.59" cy="8.719" r=".45" style="fill:#fff;stroke:none"/><circle cx="3.181" cy="9.671" r=".45" style="fill:#fff;stroke:none"/><circle cx="3.181" cy="-.329" r=".45" style="fill:#fff;stroke:none"/><circle cx="5.734" cy="7.315" r=".45" style="fill:#fff;stroke:none"/><circle cx="6.707" cy="6.513" r=".45" style="fill:#fff;stroke:none"/><circle cx="5.73" cy="9.67" r=".45" style="fill:#fff;stroke:none"/><circle cx="5.73" cy="-.33" r=".45" style="fill:#fff;stroke:none"/><circle cx="6.535" cy="8.373" r=".45" style="fill:#fff;stroke:none"/><circle cx="4.37" cy="7.154" r=".45" style="fill:#fff;stroke:none"/><circle cx=".622" cy="7.25" r=".45" style="fill:#fff;stroke:none"/><circle cx=".831" cy="5.679" r=".45" style="fill:#fff;stroke:none"/><circle cx="1.257" cy="8.519" r=".45" style="fill:#fff;stroke:none"/><circle cx="1.989" cy="6.877" r=".45" style="fill:#fff;stroke:none"/><circle cx=".374" cy="3.181" r=".45" style="fill:#fff;stroke:none"/><circle cx="10.374" cy="3.181" r=".45" style="fill:#fff;stroke:none"/><circle cx="1.166" cy="1.664" r=".45" style="fill:#fff;stroke:none"/><circle cx="1.151" cy=".093" r=".45" style="fill:#fff;stroke:none"/><circle cx="1.151" cy="10.093" r=".45" style="fill:#fff;stroke:none"/><circle cx="1.302" cy="4.451" r=".45" style="fill:#fff;stroke:none"/><circle cx="3.047" cy="3.763" r=".45" style="fill:#fff;stroke:none"/></pattern></defs><sodipodi:namedview inkscape:current-layer="g83769" inkscape:cx="334.425" inkscape:cy="896.823" inkscape:deskcolor="#d1d1d1" inkscape:document-units="mm" inkscape:pagecheckerboard="0" inkscape:pageopacity="0" inkscape:showpageshadow="0" inkscape:window-height="1080" inkscape:window-maximized="1" inkscape:window-width="1920" inkscape:window-x="1920" inkscape:window-y="0" inkscape:zoom="7.999" bordercolor="#999999" borderopacity="1" pagecolor="#ffffff" showgrid="false"/><g inkscape:label="Rosemary" style="opacity:1"><g inkscape:label="Hand" style="opacity:1;display:inline"><path inkscape:label="Pointing finger's nail" sodipodi:nodetypes="ccc" d="M92.961 242.783c2.165 1.18 3.146.294 2.474-2.028-.65.168-2.218 1.147-2.474 2.028z" style="opacity:1;display:inline;fill:#fff;fill-opacity:1;stroke:#000;stroke-width:.264999;stroke-linecap:round;stroke-linejoin:bevel;stroke-miterlimit:555;stroke-dasharray:none;stroke-opacity:1"/><path inkscape:label="Base" sodipodi:nodetypes="ccccccccccccc" d="m84.052 213.49-.354 8.324-1.708 4.765c-.341 3.376.415 6.603 1.843 9.55 1.148 1.591 2.63 1.243 4.308.805 2 1.314 1.81 1.776 2.294 3.57 2.173 3.487 3.569 3.213 5.353.253 1.773.743 2.56-1.15 2.982-2.517 3.702 3.093 6.679 1.13 2.892-2.667 8.742 3.605-4.794-12.27-5.867-13.863-.446-1.494-.827-2.667-1.998-3.637-1.191-3.16-1.846-5.55-2.822-8.78z" style="opacity:1;fill:#ffeedb;fill-opacity:1;stroke:#000;stroke-width:.264999;stroke-linecap:round;stroke-linejoin:bevel;stroke-miterlimit:555;stroke-dasharray:none;stroke-opacity:1"/><path inkscape:label="Between fingers" sodipodi:nodetypes="ccccc" d="M95.785 240.813c-.606-.601-.693-1.328-.832-2.043l-1.053.255c.645.618 1.544 1.161 1.626 2.114z" style="opacity:1;fill:#fff;fill-opacity:.298039;stroke:#000;stroke-width:.264999;stroke-linecap:round;stroke-linejoin:bevel;stroke-miterlimit:555;stroke-dasharray:none;stroke-opacity:1"/></g><g inkscape:label="Yukata"><path inkscape:label="Collar" sodipodi:nodetypes="ccccc" d="M32.678 109.428c-1.317 1.444-3.014 3.285-6.158 5.844 16.74 5.177 27.227 8.523 43.014.502-1.562-.483-8.862-9.562-8.057-9.463z" style="opacity:1;fill:#8aeda1;fill-opacity:1;stroke:#078c53;stroke-width:.264583;stroke-linecap:round;stroke-linejoin:bevel;stroke-miterlimit:555"/><path inkscape:label="Base" sodipodi:nodetypes="cccsccsccscc" d="M26.794 115.157C10.81 129.006 9.19 127.499 6.43 145.834c-2.613 19.192.338 37.26 10.154 50.555-2.755 27.589-2.105 55.8 1.818 80.925 1.116 7.147 1.559 14.38 2.649 21.53l54.726.268c3.158-19.688 4.944-35.392 5.758-55.268.38-9.26-.419-18.464-.742-27.725 5.99-1.27 9.907-3.993 13.375-6.826-2.034-10.721-2.717-21.548-2.86-32.422-.425-32.132.655-47.288-21.905-61.22-15.465 3.892-29.148 4.876-42.608-.494z" style="opacity:1;fill:#8aeda1;fill-opacity:1;stroke:#078c53;stroke-width:.264583;stroke-linecap:round;stroke-linejoin:bevel;stroke-miterlimit:555"/><path inkscape:label="Center line" d="m49.14 118.645.103 23.48-2.382 53.399" style="opacity:1;fill:none;fill-opacity:1;stroke:#078c53;stroke-width:.265;stroke-linecap:round;stroke-linejoin:bevel;stroke-miterlimit:555;stroke-dasharray:none"/><path inkscape:label="Behind the left armpit" sodipodi:nodetypes="ccc" d="M18.268 136.438c4.393 15.223 2.57 28.7.958 43.945-.369 3.49-1.257 1.446-2.965 15.676" style="opacity:1;fill:none;fill-opacity:1;stroke:#078c53;stroke-width:.264583;stroke-linecap:round;stroke-linejoin:bevel;stroke-miterlimit:555"/><path inkscape:label="Behind the right armpit" sodipodi:nodetypes="ccc" d="M77.147 139.472c-6.65 11.367-4.819 31.953 1.419 51.228 1.326 8.433 1.68 16.935 2.134 25.445" style="opacity:1;fill:none;fill-opacity:1;stroke:#078c53;stroke-width:.264583;stroke-linecap:round;stroke-linejoin:bevel;stroke-miterlimit:555"/><g inkscape:label="Uchiwa" style="opacity:1"><path inkscape:label="The fan part" sodipodi:nodetypes="ccccc" d="M43.997 122.144c-9.743 1.864-17.845 27.617-7.534 37.313l28.153.703c4.648-5.628 8.43-12.856 9.376-19.446 1.753-13.69-19.162-19.547-29.995-18.57z" style="opacity:1;fill:#b4ffe1;fill-opacity:1;stroke:#078c53;stroke-width:.264583;stroke-linecap:round;stroke-linejoin:bevel;stroke-miterlimit:555"/><path inkscape:label="Handle" d="m32.845 183.607-1.623 2.221 3.478 2.026 2.496-4.137z" style="opacity:1;fill:#d7f0aa;fill-opacity:1;stroke:#078c53;stroke-width:.264583;stroke-linecap:round;stroke-linejoin:bevel;stroke-miterlimit:555"/></g><path inkscape:label="Obi" sodipodi:nodetypes="ccccc" d="M18.768 181.964c20.316 4.492 38.132 4.893 56.94-.924-1.54-6.984-2.439-12.338-2.662-19.407l-52.077-1.24c-.37 7.163-1.208 15.118-2.2 21.57z" style="opacity:1;fill:#f7ffd2;fill-opacity:1;stroke:#078c53;stroke-width:.264583;stroke-linecap:round;stroke-linejoin:bevel;stroke-miterlimit:555"/><g inkscape:label="Bowknot" style="opacity:1"><path inkscape:label="Left lower" sodipodi:nodetypes="ccccccc" d="M25.758 167.675c-3.138 2.037-4.964 4.393-6.94 7.7 1.538 2.814 4.027 4.737 6.318 6.243 7.334-3.858 12.267-7.57 17.414-13.244l-.207-1.413s-16.545 1.037-16.585.714z" style="opacity:1;fill:#f7ffd2;fill-opacity:1;stroke:#078c53;stroke-width:.264583;stroke-linecap:round;stroke-linejoin:bevel;stroke-miterlimit:555"/><g inkscape:label="Left upper"><path inkscape:label="Fill" d="M42.318 158.37c-7.22-4.612-16.105-2.998-22.44.438 3.47 6.564 6.406 15.89 12.458 13.635 3.528-1.314 6.72-3.332 9.466-5.022z" style="color:#000;fill:#f7ffd2;stroke-width:.264583;stroke-linecap:round;stroke-linejoin:bevel;stroke-miterlimit:555;-inkscape-stroke:none" transform="translate(.049 -.03)"/><path inkscape:label="Shadow" sodipodi:nodetypes="cscc" d="M41.88 166.936c.104.868-9.302 6.176-11.5 5.916-2.088-.247-1.265-.34-2.458-1 4.164-3.473 6.673-5.756 13.959-4.916z" style="fill:#cbd797;stroke-width:1;stroke-linecap:round" transform="translate(.049 -.03)"/><path inkscape:label="Border" d="M30.762 155.438c-3.939.257-7.765 1.527-10.948 3.253l-.052.178c1.73 3.273 3.33 7.248 5.267 10.137.969 1.444 2.022 2.62 3.23 3.297 1.21.676 2.58.839 4.124.263 3.545-1.32 6.743-3.343 9.488-5.033l.063-.105.515-9.051-.06-.12c-3.637-2.322-7.689-3.077-11.627-2.82Zm.01.265c3.87-.254 7.842.488 11.41 2.746l-.508 8.895c-2.735 1.683-5.897 3.675-9.385 4.974-1.482.552-2.748.398-3.9-.246-1.152-.643-2.185-1.787-3.14-3.213-1.89-2.816-3.477-6.717-5.192-9.984 3.13-1.68 6.866-2.92 10.715-3.172z" style="color:#000;display:inline;fill:#078c53;stroke-linecap:round;stroke-linejoin:bevel;stroke-miterlimit:555;-inkscape-stroke:none" transform="translate(.049 -.03)"/></g><path inkscape:label="Right lower" sodipodi:nodetypes="cccc" d="M52.94 166.788c4.105 5.904 8.48 11.734 17.27 15.548 2.652-3.095 4.546-5.64 5.892-7.664-5.829-7.634-13.934-6.544-23.163-7.884z" style="opacity:1;fill:#f7ffd2;fill-opacity:1;stroke:#078c53;stroke-width:.264583;stroke-linecap:round;stroke-linejoin:bevel;stroke-miterlimit:555"/><g inkscape:label="Right upper"><path inkscape:label="Fill" d="M52.207 160.108c7.332-4.406 19.014-4.699 24.413-.104-1.63 4.718-5.564 11.382-9.754 14.287-6.109-.228-10.685-4.724-15.193-8.362 0 0 .732-5.751.534-5.821z" style="color:#000;display:inline;fill:#f7ffd2;stroke-width:.264583;stroke-linecap:round;stroke-linejoin:bevel;stroke-miterlimit:555;-inkscape-stroke:none"/><path inkscape:label="Shadow" sodipodi:nodetypes="cscc" d="M52.628 166.408c1.718 2.02 5.573 4.77 8.062 6.12 2.489 1.352 3.611 1.304 6.119 1.768-2.423-5.526-6.929-6.993-14.181-7.888z" style="opacity:1;fill:#cbd797;stroke-width:1;stroke-linecap:round"/><path inkscape:label="Border" d="M65.137 156.549c-4.534.05-9.307 1.227-12.998 3.445l.023.238c-.064-.022-.064-.056-.064-.058l.004.027c.004.036.008.097.007.176 0 .158-.015.387-.035.66a62.12 62.12 0 0 1-.191 1.994c-.158 1.445-.342 2.881-.342 2.881l.049.12c4.5 3.631 9.1 8.161 15.271 8.392l.08-.024c4.236-2.937 8.164-9.61 9.803-14.353l-.039-.145c-2.736-2.329-7.034-3.403-11.568-3.353zm.004.264c4.45-.05 8.647 1.015 11.314 3.24-1.634 4.673-5.523 11.226-9.629 14.095-5.998-.246-10.528-4.65-15.014-8.277.01-.07.18-1.402.334-2.812.08-.724.153-1.45.194-2.002.02-.276.032-.508.033-.678 0-.08-.002-.141-.008-.195 3.63-2.157 8.319-3.322 12.776-3.372z" style="color:#000;fill:#078c53;stroke-linecap:round;stroke-linejoin:bevel;stroke-miterlimit:555;-inkscape-stroke:none"/></g><path inkscape:label="Center" sodipodi:nodetypes="cccccc" d="M41.947 158.585c-.526 3.265-1.163 6.984.285 10.074l5.401.453 3.914-.345c1.838-3.014 2.165-6.483 2.023-9.94-4.805-2.445-8.754-1.711-11.623-.242z" style="opacity:1;fill:#f7ffd2;fill-opacity:1;stroke:#078c53;stroke-width:.264583;stroke-linecap:round;stroke-linejoin:bevel;stroke-miterlimit:555"/></g><path inkscape:label="Ohashori" sodipodi:nodetypes="cc" d="M78.338 190.218c-22.38 7.344-39.07 7.244-61.074-.427" style="opacity:1;fill:none;fill-opacity:1;stroke:#078c53;stroke-width:.262639;stroke-linecap:round;stroke-linejoin:bevel;stroke-miterlimit:555;stroke-dasharray:none"/><g inkscape:label="Patterns" style="opacity:1"><path d="m128.888 1128.75-48.612-.269-.641-5.24c-.353-2.883-2-17.166-3.659-31.741-1.66-14.575-4.555-37.3-6.434-50.5-8.76-61.516-11.838-105.784-11.858-170.5-.012-43.053.912-67.657 3.927-104.5.855-10.45 1.57-20.575 1.587-22.5.017-1.925.493-8.362 1.056-14.303.804-8.469 1.322-10.69 2.399-10.277.755.29 7.105 2.319 14.11 4.509 70.579 22.062 126.483 22.457 199.094 1.405 8.447-2.449 15.51-4.3 15.696-4.114 1.432 1.431 4.96 36.132 6.993 68.78 4.223 67.814 5.537 107.992 4.413 134.847-2.624 62.631-8.231 119.047-18.578 186.903l-2.782 18.25-54.05-.24c-29.727-.132-75.924-.362-102.66-.51z" style="opacity:.357901;fill:url(#a);fill-opacity:1;stroke:none;stroke-width:3.77953;stroke-linecap:round" transform="scale(.26458)"/><path d="M305.995 814.75c-.003-.412-.668-11.55-1.48-24.75-2.657-43.242-5.22-65.257-9.006-77.353-3.137-10.025-8.068-28.775-9.982-37.953-1.52-7.288-1.517-7.315.951-10.947 2.731-4.02 2.906-3.464-3.249-10.354-1.842-2.062-2.59-4.673-3.581-12.5L278.396 631l4.713-9.09c2.593-4.998 5.294-11.022 6.002-13.385 1.257-4.198 1.22-4.349-1.587-6.587-1.58-1.26-4.659-3.097-6.84-4.08l-3.967-1.79.596-11.034c1.03-19.084 5.833-38.957 12.709-52.577 2.138-4.236 2.612-5.957 1.64-5.957-1.532 0-6.454 10.213-9.572 19.863-3.872 11.985-7.09 31.713-7.09 43.468 0 5.205-.202 5.802-1.75 5.177-.963-.389-5.194-1.4-9.404-2.246l-7.654-1.54 3.89-6.357c10.198-16.66 17.997-36.527 20.156-51.345 4.072-27.936-14.5-50.463-52.738-63.969-10.38-3.666-22.385-6.589-31-7.547-9.813-1.092-9.64-.965-9.3-6.837l.3-5.167 10-.71c14.1-1.002 29.39-3.34 48.31-7.389l16.31-3.49 3.69 2.22c9.582 5.767 26.63 19.584 35.268 28.582 19.198 20.002 30.042 41.309 35.774 70.287 4.778 24.156 5.903 41.6 7.127 110.5 1.173 66.006 2.237 82.912 7.565 120.166 1.35 9.442 2.718 17.853 3.04 18.692.41 1.068-1.776 3.276-7.286 7.361-9.694 7.188-21.377 13.348-31.717 16.723-8.424 2.75-9.578 2.968-9.586 1.808z" style="opacity:.357901;fill:url(#a);fill-opacity:1;stroke:none;stroke-width:3.77953;stroke-linecap:round" transform="scale(.26458)"/><path d="M178.54 726.405c.296-6.823.782-15.217 1.079-18.655l.54-6.25h6.22c21.597 0 55.77-4.745 81.621-11.333 9.625-2.453 17.612-4.357 17.75-4.23.137.126 2.048 6.789 4.246 14.805 2.198 8.017 4.235 15.195 4.525 15.953.62 1.616-8.682 4.83-29.521 10.199-26.292 6.775-48.004 10.145-72.537 11.26L178 738.81zm-21.04 10.983c-23.738-2.22-50.942-7.944-76.066-16.004l-15.632-5.014.66-3.685c1.33-7.43 4.622-20.724 5.466-22.08.73-1.17 3.001-.973 14.22 1.238 12.106 2.386 31.193 5.643 33.125 5.653.425.002.027 1.143-.885 2.535-.913 1.392-1.485 2.696-1.273 2.898 2.052 1.951 13.315 7.62 14.35 7.223.739-.284 2.624-2.823 4.189-5.643 2.529-4.556 3.144-5.07 5.52-4.608 1.47.285 10.355.83 19.744 1.211l17.072.693-.53 10.098c-.291 5.553-.78 13.81-1.085 18.347l-.555 8.25-4.66-.135c-2.563-.074-8.71-.514-13.66-.977Zm4-289.513c-9.628-.768-26.313-3.424-34.122-5.432-11.236-2.888-23.378-6.976-23.378-7.87 0-.42.82-1.506 1.823-2.413 1.321-1.195 5.822-2.052 16.327-3.108 14.916-1.5 22.3-3.336 27.1-6.738 3-2.128 3.527-1.425 1.218 1.627-4.79 6.333 4.444 3.652 13.51-3.922l4.337-3.624 4.455 5.093c5.091 5.819 13.077 12.225 14.299 11.47.453-.28.137-2.41-.702-4.734-.84-2.323-1.787-7.812-2.105-12.198l-.579-7.975 4.909 4.364c4.623 4.111 8.38 6.143 22.982 12.425 6.874 2.959 16.1 5.32 17.054 4.365.35-.35-1.702-3.194-4.56-6.32-6.61-7.233-10.482-12.305-9.864-12.922.265-.266 2.468 1.033 4.895 2.887 6.523 4.98 14.302 8.63 21.695 10.176 6.023 1.26 7.021 1.861 12.303 7.412 3.161 3.322 5.445 6.224 5.075 6.45-1.084.661-28.038 6.342-35.672 7.518-18.862 2.907-47.58 4.54-61 3.469z" style="opacity:.357901;fill:url(#a);fill-opacity:1;stroke:none;stroke-width:3.77953;stroke-linecap:round" transform="scale(.26458)"/><path d="M55.335 729.266c-30.83-49.434-40.672-116.83-27.874-190.881 5.696-32.962 10.97-45.33 25.532-59.89 3.579-3.578 15.282-13.882 26.007-22.897 10.725-9.015 20.18-16.973 21.012-17.684 1.256-1.074 3.287-.704 12 2.188 18.72 6.214 44.948 10.358 65.738 10.388l7.25.01v9.784l-11.25.361c-10.233.329-11.69.62-16.125 3.223-7.428 4.362-12.137 9.093-18.466 18.556-9.555 14.285-16.447 33.259-19.242 52.971-2.211 15.602-.132 38.44 4.476 49.151.56 1.303-1.033 1.736-10.114 2.747-10.831 1.207-19.29 3.245-29.029 6.994l-5.25 2.02v-12.16c0-12.73-1.833-31.238-4.52-45.647-2.231-11.962-5.536-24-6.59-24-1.167 0-1.308-.894 2.069 13.173 4.378 18.245 6.093 31.257 6.748 51.212.582 17.709.565 17.9-1.665 19.583l-2.252 1.7 2.196 4.305c2.15 4.213 2.171 4.642 1.025 19.916-1.852 24.655-2.764 31.026-4.978 34.78-1.807 3.061-1.878 3.734-.65 6.135 1.188 2.322 1.135 4.36-.383 14.696-.969 6.6-2.476 14.397-3.35 17.327-.873 2.93-2.743 12.83-4.154 22s-2.665 17.018-2.786 17.439c-.121.42-2.54-2.954-5.375-7.5z" style="opacity:.357901;fill:url(#a);fill-opacity:1;stroke:none;stroke-width:3.77953;stroke-linecap:round" transform="scale(.26458)"/></g></g><g inkscape:label="Head"><path inkscape:label="Outline" sodipodi:nodetypes="cccccccccccccccccccccccccccccc" d="M47.587 48.373c-1.098-.395-2.337-.4-3.663-.16C24.497 53.22 20.732 67.91 23.175 82.489c.065 10.297-.001 19.618-6.955 26.582 2.515 1.005 6.27-.67 8.918-2.546l-2.174 2.365-1.795 1.613-2.149.794 5.695-1.933 2.158-.983c-.935 1.842-2.683 3.312-4.065 4.435 3.68-.284 6.466-1.91 9.613-3.642-1.071 2.149-3.425 3.432-5.065 4.652 5.83-1.075 10.348.127 13.893-3.944-.355 1.018-.952 2.057-1.58 3.098 2.086-.78 3.574-1.87 5.049-3.443 1.091 2.26 2.73 3.453 4.685 4.884-1.238-3.02-1.19-6.63-.62-6.998 1.888 2.53 4.081 3.553 6.457 4.313 1.567.8 3.533 1.616 5.086 1.623-1.593-1.662-4.217-4.152-4.589-6.166l3.426 2.566c1.923 1.3 3.671 1.889 5.9 2.1 1.483.709 2.73.737 4.303.622 1.073.488 1.942 1.911 3.17 1.617-2.163-1.653-3.05-3.848-3.959-6.134 2.721 2.169 6.11 4.3 9.336 3.837-7.047-10.185-5.741-23.37-4.63-34.111 1.77-22.226-12.851-30.012-24.602-29.791-.267.038-.649.217-1.094.474z" style="opacity:1;fill:#64c364;fill-opacity:1;stroke:#000;stroke-width:.264583;stroke-linecap:round;stroke-linejoin:bevel;stroke-miterlimit:555;stroke-dasharray:none;stroke-opacity:1"/><g inkscape:label="Hair bundles"><path inkscape:label="Bottom 1" sodipodi:nodetypes="cc" d="M33.52 103.803c-2.013 2.022-4.397 3.354-6.85 4.74" style="opacity:1;fill:none;fill-opacity:1;stroke:#078c53;stroke-width:.264583;stroke-linecap:round;stroke-linejoin:bevel;stroke-miterlimit:555;stroke-dasharray:none;stroke-opacity:1"/><path inkscape:label="Bottom 2" sodipodi:nodetypes="cc" d="M36.052 106.444c-1.094 1.321-2.306 2.115-3.81 2.828" style="opacity:1;fill:none;fill-opacity:1;stroke:#078c53;stroke-width:.264583;stroke-linecap:round;stroke-linejoin:bevel;stroke-miterlimit:555;stroke-dasharray:none;stroke-opacity:1"/><path inkscape:label="Bottom 3" sodipodi:nodetypes="cc" d="M43.288 105.56c.267 1.505.663 2.907 1.443 4.003" style="opacity:1;fill:none;fill-opacity:1;stroke:#078c53;stroke-width:.264583;stroke-linecap:round;stroke-linejoin:bevel;stroke-miterlimit:555;stroke-dasharray:none;stroke-opacity:1"/><path inkscape:label="Bottom 4" d="m49.158 106.642-.539 1.02" style="opacity:1;fill:none;fill-opacity:1;stroke:#078c53;stroke-width:.264583;stroke-linecap:round;stroke-linejoin:bevel;stroke-miterlimit:555;stroke-dasharray:none;stroke-opacity:1"/><path inkscape:label="Bottom 5" sodipodi:nodetypes="cc" d="M51.986 107.636c.937 1.938 2.587 3.769 5.286 5.046" style="opacity:1;fill:none;fill-opacity:1;stroke:#078c53;stroke-width:.264583;stroke-linecap:round;stroke-linejoin:bevel;stroke-miterlimit:555;stroke-dasharray:none;stroke-opacity:1"/><path inkscape:label="Bottom 6" sodipodi:nodetypes="cc" d="M60.747 108.32c1.165 1.384 2.586 2.688 4.527 3.646" style="opacity:1;fill:none;fill-opacity:1;stroke:#078c53;stroke-width:.264583;stroke-linecap:round;stroke-linejoin:bevel;stroke-miterlimit:555;stroke-dasharray:none;stroke-opacity:1"/><path inkscape:label="Bottom 7" sodipodi:nodetypes="cc" d="M62.248 104.025c.719 3.764 4.294 5.609 8.223 9.21" style="opacity:1;fill:none;fill-opacity:1;stroke:#078c53;stroke-width:.264583;stroke-linecap:round;stroke-linejoin:bevel;stroke-miterlimit:555;stroke-dasharray:none;stroke-opacity:1"/><path inkscape:label="Bottom 8" sodipodi:nodetypes="cc" d="M72.666 107.5c1.317 1.991 3.029 3.073 5.073 4.248" style="opacity:1;fill:none;fill-opacity:1;stroke:#078c53;stroke-width:.264583;stroke-linecap:round;stroke-linejoin:bevel;stroke-miterlimit:555;stroke-dasharray:none;stroke-opacity:1"/><path inkscape:label="Upper 1" sodipodi:nodetypes="cc" d="M42.223 56.55c-7.218 2.483-8.428 12.027-9.54 18.683" style="opacity:1;fill:none;stroke:#078c53;stroke-width:.264583;stroke-linecap:round;stroke-linejoin:bevel;stroke-miterlimit:555"/><path inkscape:label="Upper 2" sodipodi:nodetypes="cc" d="M43.13 72.28c-2.815 8.145-3.67 17.047-2.024 24.987" style="opacity:1;fill:none;stroke:#078c53;stroke-width:.264583;stroke-linecap:round;stroke-linejoin:bevel;stroke-miterlimit:555"/><path inkscape:label="Upper 3" sodipodi:nodetypes="cc" d="M59.869 67.024c4.456 3.451 2.993 18.63 4.14 25.911" style="opacity:1;fill:none;stroke:#078c53;stroke-width:.264583;stroke-linecap:round;stroke-linejoin:bevel;stroke-miterlimit:555"/></g></g></g><g inkscape:label="Derich"><path inkscape:label="Neck" sodipodi:nodetypes="cccccc" d="m154.814 142.553-.12 9.722c2.05 2 4.959 2.404 9.742 2.402 3.303-.15 6.83.359 9.754-2.563l-.058-9.946z" style="opacity:1;fill:#ffeedb;fill-opacity:1;stroke:#000;stroke-width:.264583;stroke-dasharray:none;stroke-opacity:1"/><g inkscape:label="Left hand" style="opacity:1"><path inkscape:label="Base" sodipodi:nodetypes="cccscccccscc" d="M104.41 220.463c-4.671.054-7.539-1.052-8.84.988l.267 1.66c-4.834 1.464-9.907 4.902-10.273 6.739-.143.717.133 4.479 3.029 5.287 1.71.59 1.858 1.39 2.271 2.945-1.39.677-2.614-.033-3.9-.336-.667.666-.51 1.141-.451 2.019 2.378 1.057 5.169 1.075 7.715-.4 5.776-.635 6.416-1.53 9.93-5.83 1.757-2.152 3.366-3.241 5.455-4.499z" style="opacity:1;fill:#ffeedb;fill-opacity:1;stroke:#000;stroke-width:.264583;stroke-linecap:round;stroke-linejoin:bevel;stroke-miterlimit:555;stroke-dasharray:none;stroke-opacity:1"/><path inkscape:label="The line between the third finger and the little finger" d="m90.733 238.185 2.643-1.27 1.944-.274" style="opacity:.33;fill:#ffeedb;fill-opacity:1;stroke:#000;stroke-width:.264583;stroke-linecap:round;stroke-linejoin:bevel;stroke-miterlimit:555;stroke-dasharray:none;stroke-opacity:1"/><path inkscape:label="The line between the middle finger and the third finger" sodipodi:nodetypes="cc" d="M88.777 235.256a58.242 58.242 0 0 0 2.622-1.393" style="opacity:.33;fill:#ffeedb;fill-opacity:1;stroke:#000;stroke-width:.286291;stroke-linecap:round;stroke-linejoin:bevel;stroke-miterlimit:555;stroke-dasharray:none;stroke-opacity:1"/><path inkscape:label="The line between the pointing finger and the middle finger" sodipodi:nodetypes="cc" d="M85.883 232.11c2.588-.783 4.01-1.969 5.854-3.814" style="opacity:.33;fill:#ffeedb;fill-opacity:1;stroke:#000;stroke-width:.264583;stroke-linecap:round;stroke-linejoin:bevel;stroke-miterlimit:555;stroke-dasharray:none;stroke-opacity:1"/><path inkscape:label="The line between the thumb and the pointing finger" sodipodi:nodetypes="cc" d="M95.61 223.175c.998-.313 2.21-.647 3.178-.78" style="opacity:.33;fill:#ffeedb;fill-opacity:1;stroke:#000;stroke-width:.264583;stroke-linecap:round;stroke-linejoin:bevel;stroke-miterlimit:555;stroke-dasharray:none;stroke-opacity:1"/></g><g inkscape:label="Yukata"><path inkscape:label="Collar" sodipodi:nodetypes="cccccccsc" d="M152.877 147.868c-4.722 4.373-6.315 5.073-9.467 6.754l.552 2.332 21.213 4.036 18.184-2.324.757-2.75c-2.653-2.908-5.085-5.003-7.606-7.18-5.352 4.378-7.36 5.058-12.194 5.367-4.412.282-9.294-1.833-11.439-6.235z" style="opacity:1;fill:#9aedff;fill-opacity:1;stroke:#000;stroke-width:.264583;stroke-dasharray:none;stroke-opacity:1"/><path inkscape:label="Base" sodipodi:nodetypes="ccscccccsccccc" d="M143.38 154.632c-7.309 5.758-7.637 4.77-13.258 10.67-4.754 5.088-3.266 26.865-11.468 39.22-4.387 6.608-9.12 10.596-15.282 15.23 4.919 10.487 13.06 17.446 20.684 22.506 3.774-3.918 6.965-8.294 10.23-12.629-1.525 27.458-.027 47.03 3.92 72.489l47.4.009c-.418-14.872.156-26.544 1.787-41.552 1.085-9.982 2.455-21.059 1.95-29.68 8.153-10.946 9.6-20.9 9.811-33.564-.085-13.118.34-28.105-7.162-34.048-5.123-4.667-2.965-2.444-7.806-7.4-6.674 4.585-33.154 4.598-40.805-1.251z" style="opacity:1;fill:#9aedff;fill-opacity:1;stroke:#000;stroke-width:.264583;stroke-dasharray:none;stroke-opacity:1"/><path inkscape:label="Behind the left armpit" sodipodi:nodetypes="ccc" d="M133.152 184.489c-.038-.025 2.806 11.193 3.408 21.576-.535 8.387-1.858 16.537-2.312 23.952" style="opacity:1;fill:none;fill-opacity:1;stroke:#000;stroke-width:.264583;stroke-dasharray:none;stroke-opacity:1"/><path inkscape:label="Behind the right armpit" sodipodi:nodetypes="csc" d="M192.304 183.06c-4.818 9.037-4.89 14.135-5.462 22.591-.662 9.761 1.91 14.436 2.502 25.239" style="opacity:1;fill:none;fill-opacity:1;stroke:#000;stroke-width:.264583;stroke-dasharray:none;stroke-opacity:1"/><path inkscape:label="Center line" sodipodi:nodetypes="ccc" d="M163.886 160.758c-.212 10.003-.75 40.859-.292 57.173-.1 1.84.188 6.107-.12 9.433" style="opacity:1;fill:none;fill-opacity:1;stroke:#000;stroke-width:.264583;stroke-dasharray:none;stroke-opacity:1"/><path inkscape:label="Ohashori line" sodipodi:nodetypes="ccc" d="M188.435 222.924c-8.46 3.084-15.508 3.786-24.773 4.446-11.55.16-19.472-1.19-28.746-4.545" style="opacity:1;fill:none;fill-opacity:1;stroke:#000;stroke-width:.264583;stroke-dasharray:none;stroke-opacity:1"/><path inkscape:label="Obi" sodipodi:nodetypes="ccccccc" d="M135.579 197.723c9.128 2.117 18.382 3.133 27.68 3.29 8.31-.055 16.55-.612 24.084-1.635l-.166 16.138c-10.565 2.444-13.57 3.75-23.74 3.892-10.58-.185-18.549-.18-27.854-3.426z" style="opacity:1;fill:#f7ffd2;fill-opacity:1;stroke:#000;stroke-width:.264583;stroke-dasharray:none;stroke-opacity:1"/><g inkscape:label="Bowknot"><path inkscape:label="Left bottom" sodipodi:nodetypes="cccc" d="M138.2 208.173c1.648 3.942 3.71 6.09 6.958 7.969 5.3.635 11.135-7.9 14.02-13.287-4.548-3.895-15.696-2.837-20.979 5.318z" style="opacity:1;fill:#f7ffd2;fill-opacity:1;stroke:#000;stroke-width:.264583;stroke-dasharray:none;stroke-opacity:1"/><path inkscape:label="Left top" sodipodi:nodetypes="cscccc" d="M158.018 196.247c-3.841-4.417-4.38-4.384-8.369-4.99-5.17-.788-8.922.637-13.228 2.782 1.875 6.173 5.102 15.312 10.696 17.265 5.06-1.434 8.16-3.855 11.653-6.9z" style="opacity:1;fill:#f7ffd2;fill-opacity:1;stroke:#000;stroke-width:.264583;stroke-dasharray:none;stroke-opacity:1"/><path inkscape:label="Right bottom" sodipodi:nodetypes="cccc" d="M186.265 208.451c-1.03 3.232-4.094 7.172-7.14 8.628-4.923-2.275-10.041-9.302-11.476-12.934 6.961.857 14.84-1.797 18.616 4.306z" style="opacity:1;fill:#f7ffd2;fill-opacity:1;stroke:#000;stroke-width:.264583;stroke-dasharray:none;stroke-opacity:1"/><path inkscape:label="Right top" sodipodi:nodetypes="cccccc" d="M167.698 196.502c2.461-2.73 4.983-3.638 7.488-4.161 6.408-.805 8.876-.784 13.08 1.465-1.466 5.743-3.89 14.207-9.102 18.147-4.4-1.772-9.043-5.279-11.499-8.573z" style="opacity:1;fill:#f7ffd2;fill-opacity:1;stroke:#000;stroke-width:.264583;stroke-dasharray:none;stroke-opacity:1"/><path inkscape:label="Center" sodipodi:nodetypes="csccc" d="M157.155 197.93c-1.557 6.69 1.725 7.016 6.184 7.631 4.782.66 5.362-.543 5.586-6.59-.29-4.113-1.773-3.676-5.491-4.39-4 .08-4.644-.029-6.279 3.35z" style="opacity:1;fill:#f7ffd2;fill-opacity:1;stroke:#000;stroke-width:.264583;stroke-dasharray:none;stroke-opacity:1"/></g><g inkscape:label="Patterns"><path d="M715.66 861.25c-.35-4.537-2.03-16.575-3.736-26.75-3.06-18.262-3.097-18.923-2.955-51.442.137-31.525.386-35.138 3.58-52.058 1.09-5.777 6.395-20.413 10.868-29.985 5.38-11.514 3.79-12.336-1.82-.942-4.182 8.494-10.57 25.797-10.587 28.677-.012 2.17.526 2.234-6.993-.821-3.48-1.414-9.348-2.825-13.04-3.134l-6.711-.563 3.787-8.733c10.924-25.186 18.504-59.675 21.539-97.999.37-4.675.992-9.105 1.383-9.844 1.593-3.016 3.525 14.85 3.525 32.593 0 12.17.353 18.25 1.058 18.25.969 0 6.417-24.687 8.045-36.456l.686-4.957 5.497 5.905c9.312 10.005 15.15 24.846 18.692 47.509.816 5.225 2.003 23.154 2.636 39.843 2.533 66.695-3.114 103.937-20.776 137.012-3.797 7.11-13.191 22.145-13.837 22.145-.113 0-.492-3.712-.842-8.25zM590.78 733.343c-6.674-6.918-11.364-9.246-22.305-11.07l-7.964-1.33-4.763-16.971c-5.724-20.396-11.154-44.319-13.158-57.972-2.264-15.43-4.732-44.3-4.394-51.405.42-8.805 1.496-9.279 10.868-4.779 8.965 4.305 22.705 7.987 38.635 10.354 15.01 2.23 59.113 2.527 72.801.491 12.412-1.846 23.893-4.736 30.094-7.575l5.22-2.39 2.726 2.846c2.692 2.81 2.718 2.963 2.036 12.152-2.409 32.455-10.47 79.047-19.339 111.784l-1.755 6.477-10.278 1.207c-14.618 1.717-21.664 4.304-29.887 10.97-2.301 1.866-4.437 2.982-4.747 2.48-.49-.793-3.87-1.728-13.474-3.727l-2.405-.5.72-63.443c.426-37.579.351-63.442-.183-63.442-.912 0-2.228 61.448-2.228 104.03v22.701l-7.082.507c-5.073.363-7.897 1.11-9.96 2.634-1.582 1.17-3.008 2.076-3.168 2.013-.16-.063-2.864-2.782-6.01-6.042z" style="opacity:.357901;fill:url(#a);fill-opacity:1;stroke:none;stroke-width:3.77953;stroke-linecap:round" transform="scale(.26458)"/><path d="M598 598.891c-8.584-.698-19.55-2.563-29.107-4.952-9.85-2.462-23.149-7.596-23.566-9.098-.128-.462 3.492-3.007 8.044-5.654 4.552-2.648 11.862-7.867 16.244-11.598l7.968-6.785 2.958 4.392c8.415 12.493 24.564 19.214 43.06 17.92 14.922-1.042 24.284-4.764 37.818-15.033l5.918-4.49 7.582 6.875c4.17 3.782 10.203 9.546 13.407 12.81l5.826 5.934-7.08 2.624c-15.615 5.788-24 6.868-55.572 7.156-15.95.146-31.025.1-33.5-.1zm-75.354 538.359c-1.592-8.975-6.87-48.866-9.098-68.75-6.198-55.336-8.338-107.004-6.625-159.98 1.068-33.049 2.476-57.525 3.607-62.71l.478-2.188 7.246 2.479c32.333 11.06 72.457 16.098 108.06 13.567 30.993-2.203 52.17-5.65 72.561-11.813 6.257-1.89 11.593-3.22 11.86-2.954.265.266 1.378 7.147 2.473 15.291 3.177 23.632 2.071 50.52-4.64 112.808-6.27 58.214-7.5 77.044-8.246 126.25l-.625 41.25H523.223z" style="opacity:.357901;fill:url(#a);fill-opacity:1;stroke:none;stroke-width:3.77953;stroke-linecap:round" transform="scale(.26458)"/><path d="M619 844.137c0-7.5.113-13.646.25-13.658.138-.01 6.775-.449 14.75-.973 16.702-1.097 29.23-3.244 54.5-9.34 9.9-2.388 18.071-4.302 18.158-4.254.087.049.9 5.263 1.806 11.588.906 6.325 1.85 12.201 2.098 13.058.359 1.24-2.265 2.303-12.806 5.193-22.16 6.077-43.395 9.568-69.006 11.346l-9.75.677zm-37.5 12.706c-24.863-2.959-41.728-6.366-59.344-11.989l-11.343-3.62.573-4.117c.315-2.264.866-7.57 1.225-11.792.646-7.618.67-7.669 3.078-6.753 5.804 2.207 23.828 6.242 35.811 8.018 7.65 1.134 23.699 2.326 39 2.896 14.3.532 26.113.979 26.25.991.138.013.25 6.098.25 13.523v13.5l-16.25-.15c-8.938-.082-17.6-.31-19.25-.507z" style="opacity:.357901;fill:url(#a);fill-opacity:1;stroke:none;stroke-width:3.77953;stroke-linecap:round" transform="scale(.26458)"/><path d="M459.5 907.81c-28.21-20.575-50.461-44.753-62.916-68.362l-4.511-8.551 9.713-7.438c13.106-10.036 35.294-32.422 43.075-43.459 16.451-23.338 22.798-42.608 32.168-97.668 7.94-46.658 9.355-50.83 21.243-62.618l7.347-7.286 1.76 13.786c3.174 24.874 7.493 47.422 13.526 70.625 3.266 12.56 6.199 23.098 6.517 23.416 1.47 1.47 1.513-1.213.165-10.361-2.965-20.105-4.306-43.513-3.69-64.394l.252-8.5 3.904 17c4.54 19.773 12.328 42.66 19.475 57.242l5.028 10.258-3.528.015c-8.056.034-32.5 8.444-33.71 11.599-.284.74.426 4.132 1.576 7.539 1.15 3.407 1.872 6.414 1.603 6.683-.269.269-1.503.025-2.743-.542-1.973-.903-2.49-2.51-4.142-12.913-2.087-13.127-7.055-36.157-8.005-37.108-1.47-1.47-1.364.844.406 8.786 6.779 30.423 7.067 33.507 7.006 74.901-.031 21.153-.506 42.528-1.055 47.5-1.213 10.985-1.593 14.842-2.418 24.54-1.383 16.246-.84 14.925-12.248 29.752-9.022 11.726-26.117 32.383-26.634 32.186-.09-.035-4.214-3.017-9.164-6.627z" style="opacity:.357901;fill:url(#a);fill-opacity:1;stroke:none;stroke-width:3.77953;stroke-linecap:round" transform="scale(.26458)"/></g></g><g inkscape:label="Head"><g inkscape:label="Ears"><path inkscape:label="Left" sodipodi:nodetypes="ccc" d="M143.705 129.848c.454 2.646 1.283 4.473 4.744 6.243-1.52-15.113-3.097-18.41-4.744-6.243z" style="fill:#ffeedb;fill-opacity:1;stroke:#000;stroke-width:.268767;stroke-dasharray:none;stroke-opacity:1"/><path inkscape:label="Right" sodipodi:nodetypes="ccc" d="M184.367 133.41c-1.15 1.6-2.743 2.735-4.576 3.133 1.813-8.792 3.668-18.717 4.576-3.132z" style="fill:#ffeedb;fill-opacity:1;stroke:#000;stroke-width:.264583;stroke-dasharray:none;stroke-opacity:1"/></g><path inkscape:label="Outline" sodipodi:nodetypes="ssssccccs" d="M172.64 145.813c-1.952 1.681-4.561 2.902-8.091 2.987-3.362.08-6.823-1.625-9.666-4.048-2.292-1.953-4.181-4.419-5.306-6.424-2.521-4.493-4.113-9.465-4.668-20.892.144-10.446 2.19-12.934 5.525-16.58 6.036-5.033 17.142-8.487 28.767 1.875 5.027 5.209 5.304 7.504 4.991 16.87-3.771 18.038-4.529 20.163-11.552 26.212z" style="display:inline;fill:#0080ff;fill-opacity:1;stroke:#000;stroke-width:.264583;stroke-dasharray:none;stroke-opacity:1"/><g inkscape:label="Twintail" sodipodi:insensitive="true"><path inkscape:label="Left" sodipodi:nodetypes="cccccsccccccc" d="M140.704 114.128c-5.839 13.769-7.344 31.526-6.592 48.516.97 7.386 1.06 8.513 2.437 15.675l3.155 12.238c-1.063-6.956-2.064-15.233-1.054-23.774 1.25 5.636 1.838 9.07 2.877 12.139 4.322 12.766 5.092 11.37 7.471 15.54-2.501-9.847-5.639-17.997-6.482-30.639-.914-7.484-.553-14.988-.14-22.493.283-7.747 1.7-14.812 4.084-21.165l3.296-9.06-4.57.008c-1.881.231-3.302 1.173-4.482 3.015z" style="opacity:1;fill:#0080ff;fill-opacity:1;stroke:#000;stroke-width:.264583;stroke-dasharray:none;stroke-opacity:1"/><path inkscape:label="Right" sodipodi:nodetypes="ccccccc" d="M179.324 194.321c6.703-12.583 7.353-22.378 8.646-35.879 1.65 5.668 1.793 10.14 1.312 15.722 5.182-21.475 3.157-35.578-.488-56.558l-.85-4.022c-2.635-5.158-5.17-3.788-10.654-3.21 12.491 29.304 9.856 55.568 2.034 83.947z" style="display:inline;opacity:1;fill:#0080ff;fill-opacity:1;stroke:#000;stroke-width:.264583;stroke-dasharray:none;stroke-opacity:1"/></g><g inkscape:label="Crown"><path inkscape:label="Front side" sodipodi:nodetypes="cscccccc" d="M183.674 95.632c-1.882.256-3.17.232-4.027-.165-1.357-.63-1.627-2.197-1.45-5.076-2.254 2.756-3.683 5.9-5.055 9.214 1.202 6.11 3.867 7.506 7.632 9.003 2.577-.173 5.677-2.27 11.891-4.801-7.126-.366-7.48-3.946-5.047-8.892-1.539.322-2.843.568-3.944.717" style="fill:#caff00;fill-opacity:1;stroke:#000;stroke-width:.264583;stroke-dasharray:none;stroke-opacity:1"/><path inkscape:label="Left back" sodipodi:nodetypes="cccc" d="m178.198 92.696 5.99-1.222-.302 4.089c-5.277.846-5.29-.998-5.688-2.867z" style="fill:#caff00;fill-opacity:1;stroke:#000;stroke-width:.264999;stroke-dasharray:none;stroke-opacity:1"/><path inkscape:label="Right back" sodipodi:nodetypes="cccc" d="M186.604 97.571c1.527.388 3.13.619 5.123.44-1.202 1.713-1.908 3.437-2.638 5.102-1.349-1.023-3.41-1.015-2.485-5.542z" style="fill:#caff00;fill-opacity:1;stroke:#000;stroke-width:.264583;stroke-dasharray:none;stroke-opacity:1"/></g><g inkscape:label="Accessories"><g inkscape:label="Left"><ellipse inkscape:label="Left" cx="148.218" cy="109.652" rx="2.273" ry="2.482" style="opacity:1;fill:#ff4d00;fill-opacity:1;stroke:#000;stroke-width:.264583;stroke-dasharray:none;stroke-opacity:1"/><ellipse inkscape:label="Right" cx="150.971" cy="111.484" rx="2.312" ry="2.562" style="opacity:1;fill:#ff4d00;fill-opacity:1;stroke:#000;stroke-width:.264583;stroke-dasharray:none;stroke-opacity:1"/></g><g inkscape:label="Right" transform="translate(-.1 -.815)"><circle inkscape:label="Right" cx="178.135" cy="109.418" r="2.684" style="opacity:1;fill:#ff4d00;fill-opacity:1;stroke:#000;stroke-width:.342545;stroke-dasharray:none;stroke-opacity:1"/><circle inkscape:label="Right" cx="175.37" cy="112.203" r="2.684" style="fill:#ff4d00;fill-opacity:1;stroke:#000;stroke-width:.342545;stroke-dasharray:none;stroke-opacity:1"/></g></g></g></g></svg>